{
  "source": "C:\\Users\\Peter\\Desktop\\stuff\\MIUN\\quantitative_research\\video_compression\\videos\\UVG\\HoneyBee_1920x1080_120fps_420_8bit_YUV.y4m",
  "output": "C:\\Users\\Peter\\Desktop\\stuff\\MIUN\\quantitative_research\\video_compression\\compressed_videos\\UVG\\av1\\2\\HoneyBee_1920x1080_120fps_420_8bit_YUV_av1.mkv",
  "codec": "av1",
  "ok": "[yuv4mpegpipe @ 000001e0c2325380] Stream #0: not enough frames to estimate rate; consider increasing probesize\nInput #0, yuv4mpegpipe, from 'C:\\Users\\Peter\\Desktop\\stuff\\MIUN\\quantitative_research\\video_compression\\videos\\UVG\\HoneyBee_1920x1080_120fps_420_8bit_YUV.y4m':\n  Duration: 00:00:05.00, start: 0.000000, bitrate: 2985989 kb/s\n  Stream #0:0: Video: rawvideo (I420 / 0x30323449), yuv420p(progressive), 1920x1080, 120 fps, 120 tbr, 120 tbn\n[out#0/matroska @ 000001e0c23290c0] Codec AVOption b:a (set bitrate (in bits/s)) has not been used for any stream. The most likely reason is either wrong type (e.g. a video option with no video streams) or that it is a private option of some decoder which was not actually used for any stream.\nStream mapping:\n  Stream #0:0 -> #0:0 (rawvideo (native) -> av1 (libsvtav1))\nPress [q] to stop, [?] for help\nSvt[info]: -------------------------------------------\nSvt[info]: SVT [version]:\tSVT-AV1 Encoder Lib v3.1.0-19-g6ecfe8ec\nSvt[info]: SVT [build]  :\tGCC 15.2.0\t 64 bit\nSvt[info]: LIB Build date: Aug 17 2025 11:37:13\nSvt[info]: -------------------------------------------\n[libsvtav1 @ 000001e0c232c1c0] Specified chroma sample location center is unsupported on the AV1 bit stream level. Usage of a container that allows passing this information - such as Matroska - is recommended.\nSvt[info]: Level of Parallelism: 5\nSvt[info]: Number of PPCS 93\nSvt[info]: [asm level on system : up to avx2]\nSvt[info]: [asm level selected : up to avx2]\nSvt[info]: -------------------------------------------\nSvt[info]: SVT [config]: main profile\ttier (auto)\tlevel (auto)\nSvt[info]: SVT [config]: width / height / fps numerator / fps denominator \t\t: 1920 / 1080 / 120 / 1\nSvt[info]: SVT [config]: bit-depth / color format \t\t\t\t\t: 8 / YUV420\nSvt[info]: SVT [config]: preset / tune / pred struct \t\t\t\t\t: 4 / PSNR / random access\nSvt[info]: SVT [config]: gop size / mini-gop size / key-frame type \t\t\t: 641 / 16 / key frame\nSvt[info]: SVT [config]: BRC mode / target bitrate (kbps)\t\t\t\t: VBR / 2000 \nSvt[info]: SVT [config]: AQ mode / Variance Boost \t\t\t\t\t: 2 / 0\nSvt[info]: SVT [config]: sharpness / luminance-based QP bias \t\t\t\t: 0 / 0\nSvt[info]: SVT [config]: QP scale compress strength \t\t\t\t\t: 0\nSvt[info]: -------------------------------------------\nOutput #0, matroska, to 'C:\\Users\\Peter\\Desktop\\stuff\\MIUN\\quantitative_research\\video_compression\\compressed_videos\\UVG\\av1\\2\\HoneyBee_1920x1080_120fps_420_8bit_YUV_av1.mkv':\n  Metadata:\n    encoder         : Lavf62.3.100\n  Stream #0:0: Video: av1 (AV01 / 0x31305641), yuv420p(tv, progressive), 1920x1080, q=2-31, 2000 kb/s, 120 fps, 1k tbn\n    Metadata:\n      encoder         : Lavc62.11.100 libsvtav1\n    Side data:\n      cpb: bitrate max/min/avg: 0/0/2000000 buffer size: 2000000 vbv_delay: N/A\nframe=    0 fps=0.0 q=0.0 size=       0KiB time=N/A bitrate=N/A speed=N/A elapsed=0:00:03.37    \nframe=    0 fps=0.0 q=0.0 size=       0KiB time=N/A bitrate=N/A speed=N/A elapsed=0:00:04.09    \nframe=    0 fps=0.0 q=0.0 size=       0KiB time=N/A bitrate=N/A speed=N/A elapsed=0:00:04.63    \nframe=    0 fps=0.0 q=0.0 size=       0KiB time=N/A bitrate=N/A speed=N/A elapsed=0:00:05.19    \nframe=    0 fps=0.0 q=0.0 size=       0KiB time=N/A bitrate=N/A speed=N/A elapsed=0:00:05.76    \nframe=    0 fps=0.0 q=0.0 size=       0KiB time=N/A bitrate=N/A speed=N/A elapsed=0:00:06.32    \nframe=    0 fps=0.0 q=0.0 size=       0KiB time=N/A bitrate=N/A speed=N/A elapsed=0:00:06.89    \nframe=    0 fps=0.0 q=0.0 size=       0KiB time=N/A bitrate=N/A speed=N/A elapsed=0:00:07.44    \nframe=    0 fps=0.0 q=0.0 size=       0KiB time=N/A bitrate=N/A speed=N/A elapsed=0:00:08.02    \nframe=    0 fps=0.0 q=0.0 size=       0KiB time=N/A bitrate=N/A speed=N/A elapsed=0:00:08.60    \nframe=    0 fps=0.0 q=0.0 size=       0KiB time=N/A bitrate=N/A speed=N/A elapsed=0:00:09.18    \nframe=    0 fps=0.0 q=0.0 size=       0KiB time=N/A bitrate=N/A speed=N/A elapsed=0:00:09.76    \nframe=    0 fps=0.0 q=0.0 size=       0KiB time=N/A bitrate=N/A speed=N/A elapsed=0:00:10.32    \nframe=    0 fps=0.0 q=0.0 size=       0KiB time=N/A bitrate=N/A speed=N/A elapsed=0:00:10.89    \nframe=    0 fps=0.0 q=0.0 size=       0KiB time=N/A bitrate=N/A speed=N/A elapsed=0:00:11.45    \nframe=    0 fps=0.0 q=0.0 size=       0KiB time=N/A bitrate=N/A speed=N/A elapsed=0:00:12.03    \nframe=    0 fps=0.0 q=0.0 size=       0KiB time=N/A bitrate=N/A speed=N/A elapsed=0:00:12.61    \nframe=    0 fps=0.0 q=0.0 size=       0KiB time=N/A bitrate=N/A speed=N/A elapsed=0:00:13.20    \nframe=    0 fps=0.0 q=0.0 size=       0KiB time=N/A bitrate=N/A speed=N/A elapsed=0:00:13.78    \nframe=    0 fps=0.0 q=0.0 size=       0KiB time=N/A bitrate=N/A speed=N/A elapsed=0:00:14.39    \nframe=    0 fps=0.0 q=0.0 size=       0KiB time=N/A bitrate=N/A speed=N/A elapsed=0:00:14.98    \nframe=    0 fps=0.0 q=0.0 size=       0KiB time=N/A bitrate=N/A speed=N/A elapsed=0:00:15.54    \nframe=    0 fps=0.0 q=0.0 size=       0KiB time=N/A bitrate=N/A speed=N/A elapsed=0:00:16.13    \nframe=    0 fps=0.0 q=0.0 size=       0KiB time=N/A bitrate=N/A speed=N/A elapsed=0:00:16.76    \nframe=    0 fps=0.0 q=0.0 size=       0KiB time=N/A bitrate=N/A speed=N/A elapsed=0:00:17.36    \nframe=    0 fps=0.0 q=0.0 size=       0KiB time=N/A bitrate=N/A speed=N/A elapsed=0:00:17.96    \nframe=    0 fps=0.0 q=0.0 size=       0KiB time=N/A bitrate=N/A speed=N/A elapsed=0:00:18.54    \nframe=    0 fps=0.0 q=0.0 size=       0KiB time=N/A bitrate=N/A speed=N/A elapsed=0:00:19.11    \nframe=    0 fps=0.0 q=0.0 size=       0KiB time=N/A bitrate=N/A speed=N/A elapsed=0:00:19.68    \nframe=    0 fps=0.0 q=0.0 size=       0KiB time=N/A bitrate=N/A speed=N/A elapsed=0:00:20.24    \nframe=    0 fps=0.0 q=0.0 size=       0KiB time=N/A bitrate=N/A speed=N/A elapsed=0:00:20.79    \nframe=    0 fps=0.0 q=0.0 size=       0KiB time=N/A bitrate=N/A speed=N/A elapsed=0:00:21.36    \nframe=    0 fps=0.0 q=0.0 size=       0KiB time=N/A bitrate=N/A speed=N/A elapsed=0:00:21.94    \nframe=    0 fps=0.0 q=0.0 size=       0KiB time=N/A bitrate=N/A speed=N/A elapsed=0:00:22.52    \nframe=    0 fps=0.0 q=0.0 size=       0KiB time=N/A bitrate=N/A speed=N/A elapsed=0:00:23.07    \nframe=    0 fps=0.0 q=0.0 size=       0KiB time=N/A bitrate=N/A speed=N/A elapsed=0:00:23.66    \nframe=    0 fps=0.0 q=0.0 size=       0KiB time=N/A bitrate=N/A speed=N/A elapsed=0:00:24.23    \nframe=    0 fps=0.0 q=0.0 size=       0KiB time=N/A bitrate=N/A speed=N/A elapsed=0:00:24.80    \nframe=    0 fps=0.0 q=0.0 size=       0KiB time=N/A bitrate=N/A speed=N/A elapsed=0:00:25.36    \nframe=    0 fps=0.0 q=0.0 size=       0KiB time=N/A bitrate=N/A speed=N/A elapsed=0:00:25.93    \nframe=    0 fps=0.0 q=0.0 size=       0KiB time=N/A bitrate=N/A speed=N/A elapsed=0:00:26.50    \nframe=    0 fps=0.0 q=0.0 size=       0KiB time=N/A bitrate=N/A speed=N/A elapsed=0:00:27.09    \nframe=    0 fps=0.0 q=0.0 size=       0KiB time=N/A bitrate=N/A speed=N/A elapsed=0:00:27.66    \nframe=    0 fps=0.0 q=0.0 size=       0KiB time=N/A bitrate=N/A speed=N/A elapsed=0:00:28.20    \nframe=    0 fps=0.0 q=0.0 size=       0KiB time=N/A bitrate=N/A speed=N/A elapsed=0:00:28.76    \nframe=    0 fps=0.0 q=0.0 size=       0KiB time=N/A bitrate=N/A speed=N/A elapsed=0:00:29.32    \nframe=    0 fps=0.0 q=0.0 size=       0KiB time=N/A bitrate=N/A speed=N/A elapsed=0:00:29.87    \nframe=    1 fps=0.0 q=17.0 size=       1KiB time=00:00:00.00 bitrate=N/A speed=   0x elapsed=0:00:30.44    \nframe=    1 fps=0.0 q=17.0 size=       1KiB time=00:00:00.00 bitrate=N/A speed=   0x elapsed=0:00:31.01    \nframe=    1 fps=0.0 q=17.0 size=       1KiB time=00:00:00.00 bitrate=N/A speed=   0x elapsed=0:00:31.56    \nframe=    1 fps=0.0 q=17.0 size=       1KiB time=00:00:00.00 bitrate=N/A speed=   0x elapsed=0:00:32.13    \nframe=    4 fps=0.1 q=52.0 size=       1KiB time=00:00:00.01 bitrate= 268.8kbits/s speed=0.000509x elapsed=0:00:32.73    \nframe=    6 fps=0.2 q=50.0 size=       1KiB time=00:00:00.04 bitrate= 107.5kbits/s speed=0.00125x elapsed=0:00:33.30    \nframe=    9 fps=0.3 q=45.0 size=       1KiB time=00:00:00.06 bitrate=  67.2kbits/s speed=0.00197x elapsed=0:00:33.87    \nframe=   12 fps=0.3 q=46.0 size=       1KiB time=00:00:00.09 bitrate=  48.9kbits/s speed=0.00266x elapsed=0:00:34.43    \nframe=   14 fps=0.4 q=45.0 size=       1KiB time=00:00:00.10 bitrate=  41.4kbits/s speed=0.00309x elapsed=0:00:35.03    \nframe=   15 fps=0.4 q=46.0 size=       1KiB time=00:00:00.11 bitrate=  38.4kbits/s speed=0.00328x elapsed=0:00:35.61    \nframe=   16 fps=0.4 q=45.0 size=       1KiB time=00:00:00.12 bitrate=  35.8kbits/s speed=0.00345x elapsed=0:00:36.19    \nframe=   19 fps=0.5 q=40.0 size=       1KiB time=00:00:00.15 bitrate=  29.9kbits/s speed=0.00408x elapsed=0:00:36.76    \nframe=   21 fps=0.6 q=39.0 size=       1KiB time=00:00:00.16 bitrate=  26.9kbits/s speed=0.00446x elapsed=0:00:37.34    \nframe=   23 fps=0.6 q=40.0 size=       1KiB time=00:00:00.17 bitrate=  25.6kbits/s speed=0.00461x elapsed=0:00:37.93    \nframe=   24 fps=0.6 q=40.0 size=       1KiB time=00:00:00.19 bitrate=  23.4kbits/s speed=0.00498x elapsed=0:00:38.51    \nframe=   26 fps=0.7 q=39.0 size=       1KiB time=00:00:00.20 bitrate=  21.5kbits/s speed=0.00533x elapsed=0:00:39.09    \nframe=   28 fps=0.7 q=39.0 size=       1KiB time=00:00:00.22 bitrate=  19.9kbits/s speed=0.00567x elapsed=0:00:39.67    \nframe=   30 fps=0.7 q=38.0 size=       1KiB time=00:00:00.24 bitrate=  18.5kbits/s speed=0.006x elapsed=0:00:40.25    \nframe=   30 fps=0.7 q=38.0 size=       1KiB time=00:00:00.24 bitrate=  18.5kbits/s speed=0.00592x elapsed=0:00:40.82    \nframe=   30 fps=0.7 q=38.0 size=       1KiB time=00:00:00.24 bitrate=  18.5kbits/s speed=0.00584x elapsed=0:00:41.41    \nframe=   31 fps=0.7 q=38.0 size=       1KiB time=00:00:00.25 bitrate=  17.9kbits/s speed=0.00595x elapsed=0:00:41.98    \nframe=   32 fps=0.8 q=38.0 size=       1KiB time=00:00:00.25 bitrate=  17.3kbits/s speed=0.00607x elapsed=0:00:42.56    \nframe=   33 fps=0.8 q=30.0 size=       1KiB time=00:00:00.26 bitrate=  16.8kbits/s speed=0.00618x elapsed=0:00:43.14    \nframe=   35 fps=0.8 q=33.0 size=       1KiB time=00:00:00.28 bitrate=  15.8kbits/s speed=0.00648x elapsed=0:00:43.71    \nframe=   36 fps=0.8 q=33.0 size=       1KiB time=00:00:00.28 bitrate=  15.8kbits/s speed=0.0064x elapsed=0:00:44.27    \nframe=   37 fps=0.8 q=32.0 size=       1KiB time=00:00:00.30 bitrate=  14.9kbits/s speed=0.00669x elapsed=0:00:44.84    \nframe=   38 fps=0.8 q=33.0 size=       1KiB time=00:00:00.30 bitrate=  14.5kbits/s speed=0.00679x elapsed=0:00:45.42    \nframe=   38 fps=0.8 q=33.0 size=       1KiB time=00:00:00.30 bitrate=  14.5kbits/s speed=0.0067x elapsed=0:00:45.99    \nframe=   39 fps=0.8 q=33.0 size=       1KiB time=00:00:00.31 bitrate=  14.1kbits/s speed=0.0068x elapsed=0:00:46.55    \nframe=   40 fps=0.8 q=33.0 size=       1KiB time=00:00:00.32 bitrate=  13.8kbits/s speed=0.00689x elapsed=0:00:47.14    \nframe=   41 fps=0.9 q=30.0 size=       1KiB time=00:00:00.33 bitrate=  13.4kbits/s speed=0.00699x elapsed=0:00:47.71    \nframe=   42 fps=0.9 q=31.0 size=       1KiB time=00:00:00.34 bitrate=  13.1kbits/s speed=0.00708x elapsed=0:00:48.28    \nframe=   44 fps=0.9 q=30.0 size=       1KiB time=00:00:00.35 bitrate=  12.5kbits/s speed=0.00734x elapsed=0:00:48.83    \nframe=   45 fps=0.9 q=31.0 size=       1KiB time=00:00:00.36 bitrate=  12.2kbits/s speed=0.00742x elapsed=0:00:49.39    \nframe=   46 fps=0.9 q=30.0 size=       1KiB time=00:00:00.37 bitrate=  11.9kbits/s speed=0.00751x elapsed=0:00:49.95    \nframe=   47 fps=0.9 q=30.0 size=       1KiB time=00:00:00.38 bitrate=  11.7kbits/s speed=0.00759x elapsed=0:00:50.51    \nframe=   48 fps=0.9 q=30.0 size=       1KiB time=00:00:00.39 bitrate=  11.4kbits/s speed=0.00767x elapsed=0:00:51.08    \nframe=   48 fps=0.9 q=30.0 size=       1KiB time=00:00:00.39 bitrate=  11.4kbits/s speed=0.00758x elapsed=0:00:51.65    \nframe=   49 fps=0.9 q=19.0 size=       1KiB time=00:00:00.40 bitrate=  11.2kbits/s speed=0.00766x elapsed=0:00:52.22    \nframe=   51 fps=1.0 q=27.0 size=       1KiB time=00:00:00.41 bitrate=  10.8kbits/s speed=0.00789x elapsed=0:00:52.78    \nframe=   51 fps=1.0 q=27.0 size=       1KiB time=00:00:00.41 bitrate=  10.8kbits/s speed=0.00781x elapsed=0:00:53.32    \nframe=   51 fps=0.9 q=27.0 size=       1KiB time=00:00:00.41 bitrate=  10.8kbits/s speed=0.00773x elapsed=0:00:53.88    \nframe=   53 fps=1.0 q=26.0 size=       1KiB time=00:00:00.43 bitrate=  10.3kbits/s speed=0.00796x elapsed=0:00:54.44    \nframe=   54 fps=1.0 q=28.0 size=       1KiB time=00:00:00.44 bitrate=  10.1kbits/s speed=0.00803x elapsed=0:00:55.02    \nframe=   55 fps=1.0 q=27.0 size=       1KiB time=00:00:00.45 bitrate=  10.0kbits/s speed=0.0081x elapsed=0:00:55.58    \nframe=   55 fps=1.0 q=27.0 size=       1KiB time=00:00:00.45 bitrate=  10.0kbits/s speed=0.00801x elapsed=0:00:56.14    \nframe=   55 fps=1.0 q=27.0 size=       1KiB time=00:00:00.45 bitrate=  10.0kbits/s speed=0.00794x elapsed=0:00:56.71    \nframe=   55 fps=1.0 q=27.0 size=       1KiB time=00:00:00.45 bitrate=  10.0kbits/s speed=0.00786x elapsed=0:00:57.27    \nframe=   56 fps=1.0 q=28.0 size=       1KiB time=00:00:00.45 bitrate=   9.8kbits/s speed=0.00792x elapsed=0:00:57.85    \nframe=   56 fps=1.0 q=28.0 size=       1KiB time=00:00:00.45 bitrate=   9.8kbits/s speed=0.00784x elapsed=0:00:58.42    \nframe=   56 fps=0.9 q=28.0 size=       1KiB time=00:00:00.45 bitrate=   9.8kbits/s speed=0.00777x elapsed=0:00:59.01    \nframe=   57 fps=1.0 q=24.0 size=       1KiB time=00:00:00.46 bitrate=   9.6kbits/s speed=0.00783x elapsed=0:00:59.59    \nframe=   57 fps=0.9 q=24.0 size=       1KiB time=00:00:00.46 bitrate=   9.6kbits/s speed=0.00776x elapsed=0:01:00.13    \nframe=   59 fps=1.0 q=26.0 size=       1KiB time=00:00:00.48 bitrate=   9.3kbits/s speed=0.00796x elapsed=0:01:00.70    \nframe=   59 fps=1.0 q=26.0 size=       1KiB time=00:00:00.48 bitrate=   9.3kbits/s speed=0.00789x elapsed=0:01:01.25    \nframe=   61 fps=1.0 q=24.0 size=       1KiB time=00:00:00.49 bitrate=   9.1kbits/s speed=0.00795x elapsed=0:01:01.80    \nframe=   62 fps=1.0 q=27.0 size=       1KiB time=00:00:00.50 bitrate=   8.8kbits/s speed=0.00815x elapsed=0:01:02.35    \nframe=   62 fps=1.0 q=27.0 size=       1KiB time=00:00:00.50 bitrate=   8.8kbits/s speed=0.00808x elapsed=0:01:02.94    \nframe=   63 fps=1.0 q=26.0 size=       1KiB time=00:00:00.51 bitrate=   8.7kbits/s speed=0.00813x elapsed=0:01:03.51    \nframe=   63 fps=1.0 q=26.0 size=       1KiB time=00:00:00.51 bitrate=   8.7kbits/s speed=0.00806x elapsed=0:01:04.09    \nframe=   64 fps=1.0 q=27.0 size=       1KiB time=00:00:00.52 bitrate=   8.5kbits/s speed=0.00812x elapsed=0:01:04.68    \nframe=   65 fps=1.0 q=18.0 size=       1KiB time=00:00:00.53 bitrate=   8.4kbits/s speed=0.00817x elapsed=0:01:05.26    \nframe=   66 fps=1.0 q=28.0 size=       1KiB time=00:00:00.53 bitrate=   8.4kbits/s speed=0.0081x elapsed=0:01:05.84    \nframe=   66 fps=1.0 q=28.0 size=       1KiB time=00:00:00.54 bitrate=   8.3kbits/s speed=0.00816x elapsed=0:01:06.39    \nframe=   66 fps=1.0 q=28.0 size=       1KiB time=00:00:00.54 bitrate=   8.3kbits/s speed=0.00809x elapsed=0:01:06.98    \nframe=   68 fps=1.0 q=28.0 size=       1KiB time=00:00:00.55 bitrate=   8.0kbits/s speed=0.00826x elapsed=0:01:07.55    \nframe=   69 fps=1.0 q=26.0 size=       1KiB time=00:00:00.56 bitrate=   7.9kbits/s speed=0.00832x elapsed=0:01:08.14    \nframe=   70 fps=1.0 q=28.0 size=       1KiB time=00:00:00.57 bitrate=   7.8kbits/s speed=0.00837x elapsed=0:01:08.70    \nframe=   70 fps=1.0 q=28.0 size=       1KiB time=00:00:00.57 bitrate=   7.8kbits/s speed=0.0083x elapsed=0:01:09.28    \nframe=   70 fps=1.0 q=28.0 size=       1KiB time=00:00:00.57 bitrate=   7.8kbits/s speed=0.00823x elapsed=0:01:09.85    \nframe=   70 fps=1.0 q=28.0 size=       1KiB time=00:00:00.57 bitrate=   7.8kbits/s speed=0.00816x elapsed=0:01:10.42    \nframe=   70 fps=1.0 q=28.0 size=       1KiB time=00:00:00.57 bitrate=   7.8kbits/s speed=0.0081x elapsed=0:01:10.97    \nframe=   71 fps=1.0 q=27.0 size=       1KiB time=00:00:00.58 bitrate=   7.7kbits/s speed=0.00815x elapsed=0:01:11.54    \nframe=   71 fps=1.0 q=27.0 size=       1KiB time=00:00:00.58 bitrate=   7.7kbits/s speed=0.00809x elapsed=0:01:12.11    \nframe=   73 fps=1.0 q=23.0 size=       1KiB time=00:00:00.60 bitrate=   7.5kbits/s speed=0.00826x elapsed=0:01:12.68    \nframe=   74 fps=1.0 q=27.0 size=       1KiB time=00:00:00.60 bitrate=   7.4kbits/s speed=0.0083x elapsed=0:01:13.27    \nframe=   75 fps=1.0 q=25.0 size=       1KiB time=00:00:00.61 bitrate=   7.3kbits/s speed=0.00835x elapsed=0:01:13.85    \nframe=   75 fps=1.0 q=25.0 size=       1KiB time=00:00:00.61 bitrate=   7.3kbits/s speed=0.00829x elapsed=0:01:14.42    \nframe=   75 fps=1.0 q=25.0 size=       1KiB time=00:00:00.61 bitrate=   7.3kbits/s speed=0.00822x elapsed=0:01:14.99    \nframe=   77 fps=1.0 q=22.0 size=       1KiB time=00:00:00.62 bitrate=   7.2kbits/s speed=0.00827x elapsed=0:01:15.57    \nframe=   78 fps=1.0 q=27.0 size=       1KiB time=00:00:00.63 bitrate=   7.1kbits/s speed=0.00831x elapsed=0:01:16.18    \nframe=   78 fps=1.0 q=27.0 size=       1KiB time=00:00:00.64 bitrate=   7.0kbits/s speed=0.00836x elapsed=0:01:16.77    \nframe=   78 fps=1.0 q=27.0 size=       1KiB time=00:00:00.64 bitrate=   7.0kbits/s speed=0.00829x elapsed=0:01:17.36    \nframe=   79 fps=1.0 q=25.0 size=       1KiB time=00:00:00.65 bitrate=   6.9kbits/s speed=0.00834x elapsed=0:01:17.93    \nframe=   80 fps=1.0 q=27.0 size=       1KiB time=00:00:00.65 bitrate=   6.8kbits/s speed=0.00838x elapsed=0:01:18.54    \nframe=   81 fps=1.0 q=17.0 size=       1KiB time=00:00:00.66 bitrate=   6.7kbits/s speed=0.00842x elapsed=0:01:19.15    \nframe=   82 fps=1.0 q=28.0 size=       1KiB time=00:00:00.67 bitrate=   6.6kbits/s speed=0.00847x elapsed=0:01:19.72    \nframe=   83 fps=1.0 q=27.0 size=       1KiB time=00:00:00.68 bitrate=   6.6kbits/s speed=0.00851x elapsed=0:01:20.30    \nframe=   84 fps=1.0 q=28.0 size=       1KiB time=00:00:00.69 bitrate=   6.5kbits/s speed=0.00855x elapsed=0:01:20.88    \nframe=   86 fps=1.1 q=28.0 size=       1KiB time=00:00:00.70 bitrate=   6.3kbits/s speed=0.0087x elapsed=0:01:21.43    \nframe=   86 fps=1.0 q=28.0 size=       1KiB time=00:00:00.70 bitrate=   6.3kbits/s speed=0.00864x elapsed=0:01:21.99    \nframe=   86 fps=1.0 q=28.0 size=       1KiB time=00:00:00.70 bitrate=   6.3kbits/s speed=0.00858x elapsed=0:01:22.56    \nframe=   86 fps=1.0 q=28.0 size=       1KiB time=00:00:00.70 bitrate=   6.3kbits/s speed=0.00852x elapsed=0:01:23.16    \nframe=   87 fps=1.0 q=27.0 size=       1KiB time=00:00:00.71 bitrate=   6.3kbits/s speed=0.00856x elapsed=0:01:23.74    \nframe=   87 fps=1.0 q=27.0 size=       1KiB time=00:00:00.71 bitrate=   6.3kbits/s speed=0.0085x elapsed=0:01:24.30    \nframe=   87 fps=1.0 q=27.0 size=       1KiB time=00:00:00.71 bitrate=   6.3kbits/s speed=0.00844x elapsed=0:01:24.87    \nframe=   89 fps=1.0 q=22.0 size=       1KiB time=00:00:00.73 bitrate=   6.1kbits/s speed=0.00858x elapsed=0:01:25.42    \nframe=   90 fps=1.0 q=27.0 size=       1KiB time=00:00:00.74 bitrate=   6.0kbits/s speed=0.00862x elapsed=0:01:25.99    \nframe=   91 fps=1.1 q=25.0 size=       1KiB time=00:00:00.75 bitrate=   6.0kbits/s speed=0.00866x elapsed=0:01:26.56    \nframe=   91 fps=1.0 q=25.0 size=       1KiB time=00:00:00.75 bitrate=   6.0kbits/s speed=0.00861x elapsed=0:01:27.13    \nframe=   91 fps=1.0 q=25.0 size=       1KiB time=00:00:00.75 bitrate=   6.0kbits/s speed=0.00855x elapsed=0:01:27.69    \nframe=   92 fps=1.0 q=27.0 size=       1KiB time=00:00:00.75 bitrate=   5.9kbits/s speed=0.00859x elapsed=0:01:28.25    \nframe=   93 fps=1.0 q=22.0 size=       1KiB time=00:00:00.76 bitrate=   5.8kbits/s speed=0.00863x elapsed=0:01:28.82    \nframe=   94 fps=1.1 q=27.0 size=       1KiB time=00:00:00.77 bitrate=   5.8kbits/s speed=0.00867x elapsed=0:01:29.39    \nframe=   96 fps=1.1 q=27.0 size=       1KiB time=00:00:00.79 bitrate=   5.7kbits/s speed=0.0088x elapsed=0:01:29.97    \nframe=   97 fps=1.1 q=15.0 size=       1KiB time=00:00:00.80 bitrate=   5.6kbits/s speed=0.00884x elapsed=0:01:30.54    \nframe=   99 fps=1.1 q=27.0 size=       1KiB time=00:00:00.80 bitrate=   5.5kbits/s speed=0.00887x elapsed=0:01:31.10    \nframe=  101 fps=1.1 q=25.0 size=       1KiB time=00:00:00.83 bitrate=   5.4kbits/s speed=0.00909x elapsed=0:01:31.66    \nframe=  101 fps=1.1 q=25.0 size=       1KiB time=00:00:00.83 bitrate=   5.4kbits/s speed=0.00903x elapsed=0:01:32.23    \nframe=  101 fps=1.1 q=25.0 size=       1KiB time=00:00:00.83 bitrate=   5.4kbits/s speed=0.00898x elapsed=0:01:32.80    \nframe=  102 fps=1.1 q=28.0 size=       1KiB time=00:00:00.84 bitrate=   5.3kbits/s speed=0.00902x elapsed=0:01:33.35    \nframe=  103 fps=1.1 q=27.0 size=       1KiB time=00:00:00.85 bitrate=   5.3kbits/s speed=0.00905x elapsed=0:01:33.93    \nframe=  104 fps=1.1 q=28.0 size=       1KiB time=00:00:00.85 bitrate=   5.2kbits/s speed=0.00908x elapsed=0:01:34.51    \nframe=  105 fps=1.1 q=22.0 size=       1KiB time=00:00:00.86 bitrate=   5.2kbits/s speed=0.00911x elapsed=0:01:35.10    \nframe=  107 fps=1.1 q=27.0 size=       1KiB time=00:00:00.88 bitrate=   5.1kbits/s speed=0.00923x elapsed=0:01:35.70    \nframe=  107 fps=1.1 q=27.0 size=       1KiB time=00:00:00.88 bitrate=   5.1kbits/s speed=0.00917x elapsed=0:01:36.29    \nframe=  108 fps=1.1 q=28.0 size=       1KiB time=00:00:00.89 bitrate=   5.0kbits/s speed=0.0092x elapsed=0:01:36.87    \nframe=  109 fps=1.1 q=25.0 size=       1KiB time=00:00:00.90 bitrate=   5.0kbits/s speed=0.00923x elapsed=0:01:37.46    \nframe=  110 fps=1.1 q=25.0 size=       1KiB time=00:00:00.90 bitrate=   4.9kbits/s speed=0.00926x elapsed=0:01:38.04    \nframe=  111 fps=1.1 q=21.0 size=       1KiB time=00:00:00.91 bitrate=   4.9kbits/s speed=0.0093x elapsed=0:01:38.60    \nframe=  111 fps=1.1 q=21.0 size=       1KiB time=00:00:00.91 bitrate=   4.9kbits/s speed=0.00924x elapsed=0:01:39.17    \nframe=  113 fps=1.1 q=15.0 size=       1KiB time=00:00:00.93 bitrate=   4.8kbits/s speed=0.00936x elapsed=0:01:39.74    \nframe=  114 fps=1.1 q=28.0 size=       1KiB time=00:00:00.94 bitrate=   4.8kbits/s speed=0.00939x elapsed=0:01:40.31    \nframe=  115 fps=1.1 q=27.0 size=       1KiB time=00:00:00.95 bitrate=   4.7kbits/s speed=0.00942x elapsed=0:01:40.89    \nframe=  116 fps=1.1 q=28.0 size=       1KiB time=00:00:00.95 bitrate=   4.7kbits/s speed=0.00945x elapsed=0:01:41.45    \nframe=  117 fps=1.1 q=25.0 size=       1KiB time=00:00:00.96 bitrate=   4.6kbits/s speed=0.00947x elapsed=0:01:42.02    \nframe=  117 fps=1.1 q=25.0 size=       1KiB time=00:00:00.96 bitrate=   4.6kbits/s speed=0.00942x elapsed=0:01:42.59    \nframe=  117 fps=1.1 q=25.0 size=       1KiB time=00:00:00.96 bitrate=   4.6kbits/s speed=0.00937x elapsed=0:01:43.17    \nframe=  118 fps=1.1 q=28.0 size=       1KiB time=00:00:00.97 bitrate=   4.6kbits/s speed=0.0094x elapsed=0:01:43.73    \nframe=  119 fps=1.1 q=27.0 size=       1KiB time=00:00:00.98 bitrate=   4.6kbits/s speed=0.00943x elapsed=0:01:44.29    \nframe=  120 fps=1.1 q=28.0 size=       1KiB time=00:00:00.99 bitrate=   4.5kbits/s speed=0.00946x elapsed=0:01:44.87    \nframe=  122 fps=1.2 q=28.0 size=       1KiB time=00:00:01.00 bitrate=   4.4kbits/s speed=0.00956x elapsed=0:01:45.45    \nframe=  123 fps=1.2 q=27.0 size=       1KiB time=00:00:01.01 bitrate=   4.4kbits/s speed=0.00959x elapsed=0:01:46.03    \nframe=  123 fps=1.2 q=27.0 size=       1KiB time=00:00:01.01 bitrate=   4.4kbits/s speed=0.00954x elapsed=0:01:46.58    \nframe=  125 fps=1.2 q=25.0 size=       1KiB time=00:00:01.03 bitrate=   4.3kbits/s speed=0.00964x elapsed=0:01:47.15    \nframe=  126 fps=1.2 q=24.0 size=       1KiB time=00:00:01.04 bitrate=   4.3kbits/s speed=0.00967x elapsed=0:01:47.70    \nframe=  127 fps=1.2 q=20.0 size=       1KiB time=00:00:01.05 bitrate=   4.3kbits/s speed=0.0097x elapsed=0:01:48.28    \nframe=  128 fps=1.2 q=24.0 size=       1KiB time=00:00:01.05 bitrate=   4.2kbits/s speed=0.00972x elapsed=0:01:48.87    \nframe=  131 fps=1.2 q=26.0 size=       1KiB time=00:00:01.08 bitrate=   4.1kbits/s speed=0.0099x elapsed=0:01:49.43    \nframe=  132 fps=1.2 q=27.0 size=       1KiB time=00:00:01.09 bitrate=   4.1kbits/s speed=0.00993x elapsed=0:01:49.97    \nframe=  134 fps=1.2 q=27.0 size=       1KiB time=00:00:01.10 bitrate=   4.0kbits/s speed=0.01x elapsed=0:01:50.52    \nframe=  134 fps=1.2 q=27.0 size=       1KiB time=00:00:01.10 bitrate=   4.0kbits/s speed=0.00998x elapsed=0:01:51.06    \nframe=  134 fps=1.2 q=27.0 size=       1KiB time=00:00:01.10 bitrate=   4.0kbits/s speed=0.00993x elapsed=0:01:51.62    \nframe=  135 fps=1.2 q=26.0 size=       1KiB time=00:00:01.11 bitrate=   4.0kbits/s speed=0.00995x elapsed=0:01:52.19    \nframe=  137 fps=1.2 q=20.0 size=       1KiB time=00:00:01.13 bitrate=   4.0kbits/s speed=0.0101x elapsed=0:01:52.76    \nframe=  140 fps=1.2 q=27.0 size=       1KiB time=00:00:01.15 bitrate=   3.9kbits/s speed=0.0101x elapsed=0:01:53.33    \nframe=  141 fps=1.2 q=23.0 size=       1KiB time=00:00:01.16 bitrate=   3.8kbits/s speed=0.0102x elapsed=0:01:53.91    \nframe=  142 fps=1.2 q=27.0 size=       1KiB time=00:00:01.17 bitrate=   3.8kbits/s speed=0.0103x elapsed=0:01:54.48    \nframe=  144 fps=1.3 q=27.0 size=       1KiB time=00:00:01.19 bitrate=   3.8kbits/s speed=0.0104x elapsed=0:01:55.03    \nframe=  146 fps=1.3 q=28.0 size=       1KiB time=00:00:01.20 bitrate=   3.7kbits/s speed=0.0105x elapsed=0:01:55.60    \nframe=  147 fps=1.3 q=27.0 size=       1KiB time=00:00:01.21 bitrate=   3.7kbits/s speed=0.0105x elapsed=0:01:56.19    \nframe=  149 fps=1.3 q=26.0 size=       1KiB time=00:00:01.23 bitrate=   3.6kbits/s speed=0.0106x elapsed=0:01:56.77    \nframe=  149 fps=1.3 q=26.0 size=       1KiB time=00:00:01.23 bitrate=   3.6kbits/s speed=0.0105x elapsed=0:01:57.34    \nframe=  150 fps=1.3 q=28.0 size=       1KiB time=00:00:01.24 bitrate=   3.6kbits/s speed=0.0105x elapsed=0:01:57.93    \nframe=  151 fps=1.3 q=27.0 size=       1KiB time=00:00:01.25 bitrate=   3.6kbits/s speed=0.0105x elapsed=0:01:58.51    \nframe=  153 fps=1.3 q=23.0 size=       1KiB time=00:00:01.26 bitrate=   3.5kbits/s speed=0.0106x elapsed=0:01:59.09    \nframe=  154 fps=1.3 q=28.0 size=       1KiB time=00:00:01.27 bitrate=   3.5kbits/s speed=0.0107x elapsed=0:01:59.67    \nframe=  157 fps=1.3 q=26.0 size=       1KiB time=00:00:01.30 bitrate=   3.4kbits/s speed=0.0108x elapsed=0:02:00.24    \nframe=  157 fps=1.3 q=26.0 size=       1KiB time=00:00:01.30 bitrate=   3.4kbits/s speed=0.0108x elapsed=0:02:00.81    \nframe=  158 fps=1.3 q=28.0 size=       1KiB time=00:00:01.30 bitrate=   3.4kbits/s speed=0.0108x elapsed=0:02:01.37    \nframe=  158 fps=1.3 q=28.0 size=       1KiB time=00:00:01.30 bitrate=   3.4kbits/s speed=0.0107x elapsed=0:02:01.95    \nframe=  161 fps=1.3 q=17.0 size=       1KiB time=00:00:01.32 bitrate=   3.4kbits/s speed=0.0108x elapsed=0:02:02.51    \nframe=  162 fps=1.3 q=28.0 size=       1KiB time=00:00:01.34 bitrate=   3.3kbits/s speed=0.0109x elapsed=0:02:03.06    \nframe=  164 fps=1.3 q=28.0 size=       1KiB time=00:00:01.35 bitrate=   3.3kbits/s speed=0.011x elapsed=0:02:03.66    \nframe=  165 fps=1.3 q=25.0 size=       1KiB time=00:00:01.36 bitrate=   3.3kbits/s speed=0.011x elapsed=0:02:04.22    \nframe=  167 fps=1.3 q=27.0 size=       1KiB time=00:00:01.38 bitrate=   3.2kbits/s speed=0.0111x elapsed=0:02:04.79    \nframe=  168 fps=1.3 q=28.0 size=       1KiB time=00:00:01.39 bitrate=   3.2kbits/s speed=0.0111x elapsed=0:02:05.36    \nframe=  170 fps=1.4 q=28.0 size=       1KiB time=00:00:01.40 bitrate=   3.2kbits/s speed=0.0112x elapsed=0:02:05.91    \nframe=  172 fps=1.4 q=28.0 size=       1KiB time=00:00:01.42 bitrate=   3.1kbits/s speed=0.0113x elapsed=0:02:06.46    \nframe=  173 fps=1.4 q=25.0 size=       1KiB time=00:00:01.43 bitrate=   3.1kbits/s speed=0.0113x elapsed=0:02:07.00    \nframe=  173 fps=1.4 q=25.0 size=       1KiB time=00:00:01.43 bitrate=   3.1kbits/s speed=0.0112x elapsed=0:02:07.57    \nframe=  174 fps=1.4 q=28.0 size=       1KiB time=00:00:01.44 bitrate=   3.1kbits/s speed=0.0113x elapsed=0:02:08.13    \nframe=  174 fps=1.4 q=28.0 size=       1KiB time=00:00:01.44 bitrate=   3.1kbits/s speed=0.0112x elapsed=0:02:08.69    \nframe=  175 fps=1.4 q=27.0 size=       1KiB time=00:00:01.45 bitrate=   3.1kbits/s speed=0.0112x elapsed=0:02:09.28    \nframe=  177 fps=1.4 q=13.0 size=       1KiB time=00:00:01.46 bitrate=   3.1kbits/s speed=0.0113x elapsed=0:02:09.89    \nframe=  178 fps=1.4 q=28.0 size=       1KiB time=00:00:01.47 bitrate=   3.0kbits/s speed=0.0113x elapsed=0:02:10.44    \nframe=  180 fps=1.4 q=28.0 size=       1KiB time=00:00:01.49 bitrate=   3.0kbits/s speed=0.0114x elapsed=0:02:11.00    \nframe=  181 fps=1.4 q=25.0 size=       1KiB time=00:00:01.50 bitrate=   3.0kbits/s speed=0.0114x elapsed=0:02:11.56    \nframe=  182 fps=1.4 q=28.0 size=       1KiB time=00:00:01.50 bitrate=   3.0kbits/s speed=0.0114x elapsed=0:02:12.10    \nframe=  184 fps=1.4 q=28.0 size=       1KiB time=00:00:01.52 bitrate=   2.9kbits/s speed=0.0115x elapsed=0:02:12.66    \nframe=  185 fps=1.4 q=22.0 size=       1KiB time=00:00:01.53 bitrate=   2.9kbits/s speed=0.0115x elapsed=0:02:13.23    \nframe=  187 fps=1.4 q=27.0 size=       1KiB time=00:00:01.55 bitrate=   2.9kbits/s speed=0.0116x elapsed=0:02:13.79    \nframe=  189 fps=1.4 q=25.0 size=       1KiB time=00:00:01.56 bitrate=   2.9kbits/s speed=0.0117x elapsed=0:02:14.37    \nframe=  189 fps=1.4 q=25.0 size=       1KiB time=00:00:01.56 bitrate=   2.9kbits/s speed=0.0116x elapsed=0:02:14.92    \nframe=  189 fps=1.4 q=25.0 size=       1KiB time=00:00:01.56 bitrate=   2.9kbits/s speed=0.0116x elapsed=0:02:15.49    \nframe=  190 fps=1.4 q=28.0 size=       1KiB time=00:00:01.57 bitrate=   2.8kbits/s speed=0.0116x elapsed=0:02:16.04    \nframe=  190 fps=1.4 q=28.0 size=       1KiB time=00:00:01.57 bitrate=   2.8kbits/s speed=0.0115x elapsed=0:02:16.63    \nframe=  192 fps=1.4 q=28.0 size=       1KiB time=00:00:01.59 bitrate=   2.8kbits/s speed=0.0116x elapsed=0:02:17.21    \nframe=  194 fps=1.4 q=28.0 size=       1KiB time=00:00:01.60 bitrate=   2.8kbits/s speed=0.0117x elapsed=0:02:17.78    \nframe=  196 fps=1.4 q=28.0 size=       1KiB time=00:00:01.62 bitrate=   2.8kbits/s speed=0.0117x elapsed=0:02:18.35    \nframe=  197 fps=1.4 q=25.0 size=       1KiB time=00:00:01.63 bitrate=   2.7kbits/s speed=0.0118x elapsed=0:02:18.91    \nframe=  198 fps=1.4 q=28.0 size=       1KiB time=00:00:01.64 bitrate=   2.7kbits/s speed=0.0118x elapsed=0:02:19.48    \nframe=  200 fps=1.4 q=28.0 size=       1KiB time=00:00:01.65 bitrate=   2.7kbits/s speed=0.0118x elapsed=0:02:20.04    \nframe=  201 fps=1.4 q=21.0 size=       1KiB time=00:00:01.66 bitrate=   2.7kbits/s speed=0.0119x elapsed=0:02:20.61    \nframe=  202 fps=1.4 q=28.0 size=       1KiB time=00:00:01.67 bitrate=   2.7kbits/s speed=0.0119x elapsed=0:02:21.17    \nframe=  205 fps=1.4 q=25.0 size=       1KiB time=00:00:01.70 bitrate=   2.6kbits/s speed=0.012x elapsed=0:02:21.73    \nframe=  205 fps=1.4 q=25.0 size=       1KiB time=00:00:01.70 bitrate=   2.6kbits/s speed=0.0119x elapsed=0:02:22.28    \nframe=  205 fps=1.4 q=25.0 size=       1KiB time=00:00:01.70 bitrate=   2.6kbits/s speed=0.0119x elapsed=0:02:22.85    \nframe=  205 fps=1.4 q=25.0 size=       1KiB time=00:00:01.70 bitrate=   2.6kbits/s speed=0.0119x elapsed=0:02:23.41    \nframe=  205 fps=1.4 q=25.0 size=       1KiB time=00:00:01.70 bitrate=   2.6kbits/s speed=0.0118x elapsed=0:02:23.97    \nframe=  206 fps=1.4 q=28.0 size=       1KiB time=00:00:01.70 bitrate=   2.6kbits/s speed=0.0118x elapsed=0:02:24.51    \nframe=  206 fps=1.4 q=28.0 size=       1KiB time=00:00:01.70 bitrate=   2.6kbits/s speed=0.0118x elapsed=0:02:25.07    \nframe=  207 fps=1.4 q=27.0 size=       1KiB time=00:00:01.71 bitrate=   2.6kbits/s speed=0.0118x elapsed=0:02:25.62    \nframe=  210 fps=1.4 q=27.0 size=       1KiB time=00:00:01.73 bitrate=   2.6kbits/s speed=0.0119x elapsed=0:02:26.17    \nframe=  211 fps=1.4 q=26.0 size=       1KiB time=00:00:01.75 bitrate=   2.6kbits/s speed=0.0119x elapsed=0:02:26.73    \nframe=  213 fps=1.4 q=24.0 size=       1KiB time=00:00:01.76 bitrate=   2.5kbits/s speed=0.012x elapsed=0:02:27.29    \nframe=  213 fps=1.4 q=24.0 size=       1KiB time=00:00:01.76 bitrate=   2.5kbits/s speed=0.0119x elapsed=0:02:27.85    \nframe=  213 fps=1.4 q=24.0 size=       1KiB time=00:00:01.76 bitrate=   2.5kbits/s speed=0.0119x elapsed=0:02:28.41    \nframe=  215 fps=1.4 q=26.0 size=       1KiB time=00:00:01.77 bitrate=   2.5kbits/s speed=0.0119x elapsed=0:02:28.96    \nframe=  216 fps=1.4 q=27.0 size=       1KiB time=00:00:01.79 bitrate=   2.5kbits/s speed=0.012x elapsed=0:02:29.53    \nframe=  217 fps=1.4 q=20.0 size=       1KiB time=00:00:01.80 bitrate=   2.5kbits/s speed=0.012x elapsed=0:02:30.10    \nframe=  219 fps=1.5 q=26.0 size=       1KiB time=00:00:01.81 bitrate=   2.5kbits/s speed=0.0121x elapsed=0:02:30.68    \nframe=  220 fps=1.5 q=27.0 size=       1KiB time=00:00:01.82 bitrate=   2.5kbits/s speed=0.0121x elapsed=0:02:31.25    \nframe=  220 fps=1.4 q=27.0 size=       1KiB time=00:00:01.82 bitrate=   2.5kbits/s speed=0.012x elapsed=0:02:31.83    \nframe=  221 fps=1.5 q=24.0 size=       1KiB time=00:00:01.83 bitrate=   2.4kbits/s speed=0.012x elapsed=0:02:32.40    \nframe=  221 fps=1.4 q=24.0 size=       1KiB time=00:00:01.83 bitrate=   2.4kbits/s speed=0.012x elapsed=0:02:32.96    \nframe=  222 fps=1.4 q=27.0 size=       1KiB time=00:00:01.84 bitrate=   2.4kbits/s speed=0.012x elapsed=0:02:33.51    \nframe=  222 fps=1.4 q=27.0 size=       1KiB time=00:00:01.84 bitrate=   2.4kbits/s speed=0.012x elapsed=0:02:34.08    \nframe=  223 fps=1.4 q=26.0 size=       1KiB time=00:00:01.85 bitrate=   2.4kbits/s speed=0.012x elapsed=0:02:34.62    \nframe=  225 fps=1.4 q=12.0 size=       1KiB time=00:00:01.86 bitrate=   2.4kbits/s speed=0.012x elapsed=0:02:35.19    \nframe=  227 fps=1.5 q=26.0 size=       1KiB time=00:00:01.88 bitrate=   2.4kbits/s speed=0.0121x elapsed=0:02:35.75    \nframe=  230 fps=1.5 q=27.0 size=       1KiB time=00:00:01.90 bitrate=   2.3kbits/s speed=0.0122x elapsed=0:02:36.30    \nframe=  231 fps=1.5 q=26.0 size=       1KiB time=00:00:01.91 bitrate=   2.3kbits/s speed=0.0122x elapsed=0:02:36.85    \nframe=  232 fps=1.5 q=27.0 size=       1KiB time=00:00:01.92 bitrate=   2.3kbits/s speed=0.0122x elapsed=0:02:37.42    \nframe=  235 fps=1.5 q=26.0 size=       1KiB time=00:00:01.94 bitrate=   2.3kbits/s speed=0.0123x elapsed=0:02:38.01    \nframe=  237 fps=1.5 q=24.0 size=       1KiB time=00:00:01.96 bitrate=   2.3kbits/s speed=0.0124x elapsed=0:02:38.60    \nframe=  239 fps=1.5 q=26.0 size=       1KiB time=00:00:01.97 bitrate=   2.3kbits/s speed=0.0124x elapsed=0:02:39.19    \nframe=  240 fps=1.5 q=27.0 size=       1KiB time=00:00:01.99 bitrate=   2.2kbits/s speed=0.0125x elapsed=0:02:39.79    \nframe=  242 fps=1.5 q=28.0 size=       1KiB time=00:00:02.00 bitrate=   2.2kbits/s speed=0.0125x elapsed=0:02:40.37    \nframe=  243 fps=1.5 q=27.0 size=       1KiB time=00:00:02.01 bitrate=   2.2kbits/s speed=0.0125x elapsed=0:02:40.95    \nframe=  244 fps=1.5 q=28.0 size=       1KiB time=00:00:02.02 bitrate=   2.2kbits/s speed=0.0125x elapsed=0:02:41.52    \nframe=  245 fps=1.5 q=25.0 size=       1KiB time=00:00:02.03 bitrate=   2.2kbits/s speed=0.0125x elapsed=0:02:42.10    \nframe=  246 fps=1.5 q=28.0 size=       1KiB time=00:00:02.03 bitrate=   2.2kbits/s speed=0.0125x elapsed=0:02:42.67    \nframe=  247 fps=1.5 q=27.0 size=       1KiB time=00:00:02.05 bitrate=   2.2kbits/s speed=0.0126x elapsed=0:02:43.24    \nframe=  248 fps=1.5 q=28.0 size=       1KiB time=00:00:02.05 bitrate=   2.2kbits/s speed=0.0126x elapsed=0:02:43.80    \nframe=  250 fps=1.5 q=28.0 size=       1KiB time=00:00:02.07 bitrate=   2.2kbits/s speed=0.0126x elapsed=0:02:44.36    \nframe=  252 fps=1.5 q=28.0 size=       1KiB time=00:00:02.09 bitrate=   2.1kbits/s speed=0.0127x elapsed=0:02:44.92    \nframe=  253 fps=1.5 q=25.0 size=       1KiB time=00:00:02.10 bitrate=   2.1kbits/s speed=0.0127x elapsed=0:02:45.49    \nframe=  254 fps=1.5 q=28.0 size=       1KiB time=00:00:02.10 bitrate=   2.1kbits/s speed=0.0126x elapsed=0:02:46.08    \nframe=  254 fps=1.5 q=28.0 size=       1KiB time=00:00:02.10 bitrate=   2.1kbits/s speed=0.0127x elapsed=0:02:46.66    \nframe=  255 fps=1.5 q=27.0 size=       1KiB time=00:00:02.11 bitrate=   2.1kbits/s speed=0.0127x elapsed=0:02:47.22    \nframe=  257 fps=1.5 q=15.0 size=       1KiB time=00:00:02.13 bitrate=   2.1kbits/s speed=0.0127x elapsed=0:02:47.77    \nframe=  258 fps=1.5 q=28.0 size=       1KiB time=00:00:02.14 bitrate=   2.1kbits/s speed=0.0127x elapsed=0:02:48.35    \nframe=  260 fps=1.5 q=28.0 size=       1KiB time=00:00:02.15 bitrate=   2.1kbits/s speed=0.0127x elapsed=0:02:48.92    \nframe=  261 fps=1.5 q=25.0 size=       1KiB time=00:00:02.16 bitrate=   2.1kbits/s speed=0.0128x elapsed=0:02:49.50    \nframe=  263 fps=1.5 q=27.0 size=       1KiB time=00:00:02.18 bitrate=   2.1kbits/s speed=0.0128x elapsed=0:02:50.08    \nframe=  264 fps=1.5 q=28.0 size=       1KiB time=00:00:02.19 bitrate=   2.0kbits/s speed=0.0128x elapsed=0:02:50.66    \nframe=  265 fps=1.5 q=21.0 size=       1KiB time=00:00:02.20 bitrate=   2.0kbits/s speed=0.0128x elapsed=0:02:51.22    \nframe=  267 fps=1.6 q=27.0 size=       1KiB time=00:00:02.21 bitrate=   2.0kbits/s speed=0.0129x elapsed=0:02:51.79    \nframe=  269 fps=1.6 q=25.0 size=       1KiB time=00:00:02.23 bitrate=   2.0kbits/s speed=0.013x elapsed=0:02:52.38    \nframe=  271 fps=1.6 q=27.0 size=       1KiB time=00:00:02.25 bitrate=   2.0kbits/s speed=0.013x elapsed=0:02:52.95    \nframe=  273 fps=1.6 q=14.0 size=       1KiB time=00:00:02.26 bitrate=   2.0kbits/s speed=0.0131x elapsed=0:02:53.51    \nframe=  275 fps=1.6 q=27.0 size=       1KiB time=00:00:02.28 bitrate=   2.0kbits/s speed=0.0131x elapsed=0:02:54.08    \nframe=  278 fps=1.6 q=28.0 size=       1KiB time=00:00:02.30 bitrate=   1.9kbits/s speed=0.0132x elapsed=0:02:54.62    \nframe=  278 fps=1.6 q=28.0 size=       1KiB time=00:00:02.30 bitrate=   1.9kbits/s speed=0.0132x elapsed=0:02:55.19    \nframe=  279 fps=1.6 q=27.0 size=       1KiB time=00:00:02.31 bitrate=   1.9kbits/s speed=0.0132x elapsed=0:02:55.74    \nframe=  281 fps=1.6 q=23.0 size=       1KiB time=00:00:02.33 bitrate=   1.9kbits/s speed=0.0132x elapsed=0:02:56.30    \nframe=  283 fps=1.6 q=26.0 size=       1KiB time=00:00:02.35 bitrate=   1.9kbits/s speed=0.0133x elapsed=0:02:56.86    \nframe=  283 fps=1.6 q=26.0 size=       1KiB time=00:00:02.35 bitrate=   1.9kbits/s speed=0.0132x elapsed=0:02:57.40    \nframe=  285 fps=1.6 q=24.0 size=       1KiB time=00:00:02.36 bitrate=   1.9kbits/s speed=0.0133x elapsed=0:02:57.95    \nframe=  287 fps=1.6 q=26.0 size=       1KiB time=00:00:02.38 bitrate=   1.9kbits/s speed=0.0133x elapsed=0:02:58.53    \nframe=  288 fps=1.6 q=27.0 size=       1KiB time=00:00:02.39 bitrate=   1.9kbits/s speed=0.0134x elapsed=0:02:59.12    \nframe=  290 fps=1.6 q=28.0 size=       1KiB time=00:00:02.40 bitrate=   1.9kbits/s speed=0.0134x elapsed=0:02:59.69    \nframe=  291 fps=1.6 q=27.0 size=       1KiB time=00:00:02.41 bitrate=   1.9kbits/s speed=0.0134x elapsed=0:03:00.26    \nframe=  294 fps=1.6 q=28.0 size=       1KiB time=00:00:02.44 bitrate=   1.8kbits/s speed=0.0135x elapsed=0:03:00.83    \nframe=  294 fps=1.6 q=28.0 size=       1KiB time=00:00:02.44 bitrate=   1.8kbits/s speed=0.0135x elapsed=0:03:01.38    \nframe=  295 fps=1.6 q=27.0 size=       1KiB time=00:00:02.45 bitrate=   1.8kbits/s speed=0.0135x elapsed=0:03:01.94    \nframe=  296 fps=1.6 q=28.0 size=       1KiB time=00:00:02.45 bitrate=   1.8kbits/s speed=0.0135x elapsed=0:03:02.52    \nframe=  299 fps=1.6 q=27.0 size=       1KiB time=00:00:02.48 bitrate=   1.8kbits/s speed=0.0136x elapsed=0:03:03.10    \nframe=  300 fps=1.6 q=28.0 size=       1KiB time=00:00:02.49 bitrate=   1.8kbits/s speed=0.0136x elapsed=0:03:03.67    \nframe=  301 fps=1.6 q=26.0 size=       1KiB time=00:00:02.50 bitrate=   1.8kbits/s speed=0.0136x elapsed=0:03:04.24    \nframe=  302 fps=1.6 q=28.0 size=       1KiB time=00:00:02.50 bitrate=   1.8kbits/s speed=0.0136x elapsed=0:03:04.82    \nframe=  303 fps=1.6 q=27.0 size=       1KiB time=00:00:02.51 bitrate=   1.8kbits/s speed=0.0136x elapsed=0:03:05.41    \nframe=  305 fps=1.6 q=20.0 size=       1KiB time=00:00:02.53 bitrate=   1.8kbits/s speed=0.0136x elapsed=0:03:05.99    \nframe=  306 fps=1.6 q=28.0 size=       1KiB time=00:00:02.54 bitrate=   1.8kbits/s speed=0.0136x elapsed=0:03:06.55    \nframe=  308 fps=1.6 q=28.0 size=       1KiB time=00:00:02.55 bitrate=   1.8kbits/s speed=0.0137x elapsed=0:03:07.12    \nframe=  310 fps=1.7 q=28.0 size=       1KiB time=00:00:02.57 bitrate=   1.7kbits/s speed=0.0137x elapsed=0:03:07.67    \nframe=  311 fps=1.7 q=27.0 size=       1KiB time=00:00:02.58 bitrate=   1.7kbits/s speed=0.0137x elapsed=0:03:08.23    \nframe=  313 fps=1.7 q=22.0 size=       1KiB time=00:00:02.60 bitrate=   1.7kbits/s speed=0.0138x elapsed=0:03:08.78    \nframe=  315 fps=1.7 q=27.0 size=       1KiB time=00:00:02.61 bitrate=   1.7kbits/s speed=0.0138x elapsed=0:03:09.36    \nframe=  317 fps=1.7 q=25.0 size=       1KiB time=00:00:02.63 bitrate=   1.7kbits/s speed=0.0139x elapsed=0:03:09.93    \nframe=  319 fps=1.7 q=25.0 size=       1KiB time=00:00:02.65 bitrate=   1.7kbits/s speed=0.0139x elapsed=0:03:10.48    \nframe=  321 fps=1.7 q=16.0 size=       1KiB time=00:00:02.66 bitrate=   1.7kbits/s speed=0.014x elapsed=0:03:11.05    \nframe=  322 fps=1.7 q=28.0 size=       1KiB time=00:00:02.67 bitrate=   1.7kbits/s speed=0.014x elapsed=0:03:11.62    \nframe=  324 fps=1.7 q=28.0 size=       1KiB time=00:00:02.69 bitrate=   1.7kbits/s speed=0.014x elapsed=0:03:12.16    \nframe=  326 fps=1.7 q=28.0 size=       1KiB time=00:00:02.70 bitrate=   1.7kbits/s speed=0.0141x elapsed=0:03:12.72    \nframe=  327 fps=1.7 q=27.0 size=       1KiB time=00:00:02.71 bitrate=   1.6kbits/s speed=0.0141x elapsed=0:03:13.27    \nframe=  329 fps=1.7 q=21.0 size=       1KiB time=00:00:02.73 bitrate=   1.6kbits/s speed=0.0141x elapsed=0:03:13.85    \nframe=  331 fps=1.7 q=27.0 size=       1KiB time=00:00:02.74 bitrate=   1.6kbits/s speed=0.0141x elapsed=0:03:14.43    \nframe=  333 fps=1.7 q=25.0 size=       1KiB time=00:00:02.76 bitrate=   1.6kbits/s speed=0.0142x elapsed=0:03:15.01    \nframe=  334 fps=1.7 q=28.0 size=       1KiB time=00:00:02.77 bitrate=   1.6kbits/s speed=0.0142x elapsed=0:03:15.58    \nframe=  335 fps=1.7 q=27.0 size=       1KiB time=00:00:02.78 bitrate=   1.6kbits/s speed=0.0142x elapsed=0:03:16.14    \nframe=  337 fps=1.7 q=14.0 size=       1KiB time=00:00:02.80 bitrate=   1.6kbits/s speed=0.0142x elapsed=0:03:16.75    \nframe=  338 fps=1.7 q=28.0 size=       1KiB time=00:00:02.80 bitrate=   1.6kbits/s speed=0.0142x elapsed=0:03:17.31    \nframe=  340 fps=1.7 q=28.0 size=       1KiB time=00:00:02.82 bitrate=   1.6kbits/s speed=0.0143x elapsed=0:03:17.87    \nframe=  341 fps=1.7 q=25.0 size=       1KiB time=00:00:02.83 bitrate=   1.6kbits/s speed=0.0143x elapsed=0:03:18.43    \nframe=  342 fps=1.7 q=28.0 size=       1KiB time=00:00:02.84 bitrate=   1.6kbits/s speed=0.0143x elapsed=0:03:18.97    \nframe=  344 fps=1.7 q=28.0 size=       1KiB time=00:00:02.85 bitrate=   1.6kbits/s speed=0.0143x elapsed=0:03:19.52    \nframe=  346 fps=1.7 q=28.0 size=       1KiB time=00:00:02.87 bitrate=   1.6kbits/s speed=0.0144x elapsed=0:03:20.07    \nframe=  348 fps=1.7 q=28.0 size=       1KiB time=00:00:02.89 bitrate=   1.5kbits/s speed=0.0144x elapsed=0:03:20.63    \nframe=  350 fps=1.7 q=25.0 size=       1KiB time=00:00:02.90 bitrate=   1.5kbits/s speed=0.0145x elapsed=0:03:21.19    \nframe=  351 fps=1.7 q=21.0 size=       1KiB time=00:00:02.91 bitrate=   1.5kbits/s speed=0.0145x elapsed=0:03:21.78    \nframe=  352 fps=1.7 q=25.0 size=       1KiB time=00:00:02.92 bitrate=   1.5kbits/s speed=0.0145x elapsed=0:03:22.39    \nframe=  354 fps=1.7 q=28.0 size=       1KiB time=00:00:02.93 bitrate=   1.5kbits/s speed=0.0145x elapsed=0:03:22.99    \nframe=  355 fps=1.7 q=27.0 size=       1KiB time=00:00:02.95 bitrate=   1.5kbits/s speed=0.0145x elapsed=0:03:23.57    \nframe=  357 fps=1.7 q=25.0 size=       1KiB time=00:00:02.96 bitrate=   1.5kbits/s speed=0.0145x elapsed=0:03:24.16    \nframe=  358 fps=1.7 q=28.0 size=       1KiB time=00:00:02.96 bitrate=   1.5kbits/s speed=0.0145x elapsed=0:03:24.74    \nframe=  358 fps=1.7 q=28.0 size=       1KiB time=00:00:02.97 bitrate=   1.5kbits/s speed=0.0145x elapsed=0:03:25.32    \nframe=  358 fps=1.7 q=28.0 size=       1KiB time=00:00:02.97 bitrate=   1.5kbits/s speed=0.0144x elapsed=0:03:25.89    \nframe=  359 fps=1.7 q=27.0 size=       1KiB time=00:00:02.98 bitrate=   1.5kbits/s speed=0.0144x elapsed=0:03:26.46    \nframe=  360 fps=1.7 q=28.0 size=       1KiB time=00:00:02.99 bitrate=   1.5kbits/s speed=0.0144x elapsed=0:03:27.04    \nframe=  362 fps=1.7 q=27.0 size=       1KiB time=00:00:03.00 bitrate=   1.5kbits/s speed=0.0145x elapsed=0:03:27.61    \nframe=  364 fps=1.7 q=26.0 size=       1KiB time=00:00:03.02 bitrate=   1.5kbits/s speed=0.0145x elapsed=0:03:28.19    \nframe=  365 fps=1.7 q=24.0 size=       1KiB time=00:00:03.03 bitrate=   1.5kbits/s speed=0.0145x elapsed=0:03:28.77    \nframe=  368 fps=1.8 q=27.0 size=       1KiB time=00:00:03.05 bitrate=   1.5kbits/s speed=0.0146x elapsed=0:03:29.34    \nframe=  370 fps=1.8 q=28.0 size=       1KiB time=00:00:03.07 bitrate=   1.5kbits/s speed=0.0146x elapsed=0:03:29.91    \nframe=  371 fps=1.8 q=27.0 size=       1KiB time=00:00:03.08 bitrate=   1.5kbits/s speed=0.0146x elapsed=0:03:30.47    \nframe=  373 fps=1.8 q=26.0 size=       1KiB time=00:00:03.10 bitrate=   1.4kbits/s speed=0.0147x elapsed=0:03:31.04    \nframe=  373 fps=1.8 q=26.0 size=       1KiB time=00:00:03.10 bitrate=   1.4kbits/s speed=0.0147x elapsed=0:03:31.59    \nframe=  375 fps=1.8 q=27.0 size=       1KiB time=00:00:03.10 bitrate=   1.4kbits/s speed=0.0147x elapsed=0:03:32.14    \nframe=  377 fps=1.8 q=24.0 size=       1KiB time=00:00:03.13 bitrate=   1.4kbits/s speed=0.0147x elapsed=0:03:32.70    \nframe=  378 fps=1.8 q=28.0 size=       1KiB time=00:00:03.14 bitrate=   1.4kbits/s speed=0.0147x elapsed=0:03:33.27    \nframe=  381 fps=1.8 q=26.0 size=       1KiB time=00:00:03.16 bitrate=   1.4kbits/s speed=0.0148x elapsed=0:03:33.83    \nframe=  383 fps=1.8 q=22.0 size=       1KiB time=00:00:03.17 bitrate=   1.4kbits/s speed=0.0148x elapsed=0:03:34.39    \nframe=  385 fps=1.8 q=19.0 size=       1KiB time=00:00:03.19 bitrate=   1.4kbits/s speed=0.0148x elapsed=0:03:34.95    \nframe=  386 fps=1.8 q=28.0 size=       1KiB time=00:00:03.20 bitrate=   1.4kbits/s speed=0.0149x elapsed=0:03:35.52    \nframe=  388 fps=1.8 q=28.0 size=       1KiB time=00:00:03.22 bitrate=   1.4kbits/s speed=0.0149x elapsed=0:03:36.08    \nframe=  389 fps=1.8 q=25.0 size=       1KiB time=00:00:03.23 bitrate=   1.4kbits/s speed=0.0149x elapsed=0:03:36.63    \nframe=  390 fps=1.8 q=28.0 size=       1KiB time=00:00:03.24 bitrate=   1.4kbits/s speed=0.0149x elapsed=0:03:37.18    \nframe=  390 fps=1.8 q=28.0 size=       1KiB time=00:00:03.24 bitrate=   1.4kbits/s speed=0.0149x elapsed=0:03:37.74    \nframe=  391 fps=1.8 q=27.0 size=       1KiB time=00:00:03.25 bitrate=   1.4kbits/s speed=0.0149x elapsed=0:03:38.30    \nframe=  392 fps=1.8 q=23.0 size=       1KiB time=00:00:03.25 bitrate=   1.4kbits/s speed=0.0149x elapsed=0:03:38.86    \nframe=  395 fps=1.8 q=26.0 size=       1KiB time=00:00:03.28 bitrate=   1.4kbits/s speed=0.015x elapsed=0:03:39.42    \nframe=  396 fps=1.8 q=27.0 size=       1KiB time=00:00:03.29 bitrate=   1.4kbits/s speed=0.015x elapsed=0:03:39.99    \nframe=  399 fps=1.8 q=26.0 size=       1KiB time=00:00:03.31 bitrate=   1.4kbits/s speed=0.015x elapsed=0:03:40.56    \nframe=  401 fps=1.8 q=15.0 size=       1KiB time=00:00:03.32 bitrate=   1.3kbits/s speed=0.015x elapsed=0:03:41.12    \nframe=  402 fps=1.8 q=28.0 size=       1KiB time=00:00:03.34 bitrate=   1.3kbits/s speed=0.0151x elapsed=0:03:41.70    \nframe=  403 fps=1.8 q=27.0 size=       1KiB time=00:00:03.35 bitrate=   1.3kbits/s speed=0.0151x elapsed=0:03:42.27    \nframe=  405 fps=1.8 q=26.0 size=       1KiB time=00:00:03.35 bitrate=   1.3kbits/s speed=0.0151x elapsed=0:03:42.83    \nframe=  405 fps=1.8 q=26.0 size=       1KiB time=00:00:03.36 bitrate=   1.3kbits/s speed=0.0151x elapsed=0:03:43.39    \nframe=  407 fps=1.8 q=27.0 size=       1KiB time=00:00:03.38 bitrate=   1.3kbits/s speed=0.0151x elapsed=0:03:43.97    \nframe=  408 fps=1.8 q=28.0 size=       1KiB time=00:00:03.39 bitrate=   1.3kbits/s speed=0.0151x elapsed=0:03:44.53    \nframe=  411 fps=1.8 q=27.0 size=       1KiB time=00:00:03.40 bitrate=   1.3kbits/s speed=0.0151x elapsed=0:03:45.10    \nframe=  412 fps=1.8 q=28.0 size=       1KiB time=00:00:03.42 bitrate=   1.3kbits/s speed=0.0152x elapsed=0:03:45.69    \nframe=  413 fps=1.8 q=26.0 size=       1KiB time=00:00:03.43 bitrate=   1.3kbits/s speed=0.0152x elapsed=0:03:46.28    \nframe=  414 fps=1.8 q=28.0 size=       1KiB time=00:00:03.44 bitrate=   1.3kbits/s speed=0.0152x elapsed=0:03:46.87    \nframe=  415 fps=1.8 q=27.0 size=       1KiB time=00:00:03.45 bitrate=   1.3kbits/s speed=0.0152x elapsed=0:03:47.44    \nframe=  417 fps=1.8 q=18.0 size=       1KiB time=00:00:03.46 bitrate=   1.3kbits/s speed=0.0152x elapsed=0:03:48.01    \nframe=  419 fps=1.8 q=27.0 size=       1KiB time=00:00:03.47 bitrate=   1.3kbits/s speed=0.0152x elapsed=0:03:48.58    \nframe=  420 fps=1.8 q=28.0 size=       1KiB time=00:00:03.49 bitrate=   1.3kbits/s speed=0.0152x elapsed=0:03:49.15    \nframe=  421 fps=1.8 q=25.0 size=       1KiB time=00:00:03.50 bitrate=   1.3kbits/s speed=0.0152x elapsed=0:03:49.72    \nframe=  422 fps=1.8 q=28.0 size=       1KiB time=00:00:03.50 bitrate=   1.3kbits/s speed=0.0152x elapsed=0:03:50.27    \nframe=  423 fps=1.8 q=27.0 size=       1KiB time=00:00:03.51 bitrate=   1.3kbits/s speed=0.0152x elapsed=0:03:50.83    \nframe=  424 fps=1.8 q=28.0 size=       1KiB time=00:00:03.52 bitrate=   1.3kbits/s speed=0.0152x elapsed=0:03:51.42    \nframe=  425 fps=1.8 q=22.0 size=       1KiB time=00:00:03.53 bitrate=   1.3kbits/s speed=0.0152x elapsed=0:03:51.98    \nframe=  428 fps=1.8 q=28.0 size=       1KiB time=00:00:03.55 bitrate=   1.3kbits/s speed=0.0153x elapsed=0:03:52.54    \nframe=  429 fps=1.8 q=25.0 size=       1KiB time=00:00:03.56 bitrate=   1.3kbits/s speed=0.0153x elapsed=0:03:53.16    \nframe=  430 fps=1.8 q=28.0 size=       1KiB time=00:00:03.56 bitrate=   1.3kbits/s speed=0.0153x elapsed=0:03:53.77    \nframe=  430 fps=1.8 q=28.0 size=       1KiB time=00:00:03.57 bitrate=   1.3kbits/s speed=0.0153x elapsed=0:03:54.33    \nframe=  431 fps=1.8 q=27.0 size=       1KiB time=00:00:03.58 bitrate=   1.3kbits/s speed=0.0153x elapsed=0:03:54.91    \nframe=  432 fps=1.8 q=28.0 size=       1KiB time=00:00:03.59 bitrate=   1.2kbits/s speed=0.0153x elapsed=0:03:55.48    \nframe=  434 fps=1.8 q=28.0 size=       1KiB time=00:00:03.60 bitrate=   1.2kbits/s speed=0.0153x elapsed=0:03:56.04    \nframe=  435 fps=1.8 q=27.0 size=       1KiB time=00:00:03.61 bitrate=   1.2kbits/s speed=0.0153x elapsed=0:03:56.63    \nframe=  436 fps=1.8 q=28.0 size=       1KiB time=00:00:03.62 bitrate=   1.2kbits/s speed=0.0153x elapsed=0:03:57.20    \nframe=  437 fps=1.8 q=25.0 size=       1KiB time=00:00:03.63 bitrate=   1.2kbits/s speed=0.0153x elapsed=0:03:57.77    \nframe=  438 fps=1.8 q=28.0 size=       1KiB time=00:00:03.64 bitrate=   1.2kbits/s speed=0.0153x elapsed=0:03:58.34    \nframe=  439 fps=1.8 q=27.0 size=       1KiB time=00:00:03.65 bitrate=   1.2kbits/s speed=0.0153x elapsed=0:03:58.94    \nframe=  441 fps=1.8 q=21.0 size=       1KiB time=00:00:03.66 bitrate=   1.2kbits/s speed=0.0153x elapsed=0:03:59.54    \nframe=  442 fps=1.8 q=28.0 size=       1KiB time=00:00:03.67 bitrate=   1.2kbits/s speed=0.0153x elapsed=0:04:00.13    \nframe=  442 fps=1.8 q=28.0 size=       1KiB time=00:00:03.67 bitrate=   1.2kbits/s speed=0.0153x elapsed=0:04:00.71    \nframe=  444 fps=1.8 q=22.0 size=       1KiB time=00:00:03.69 bitrate=   1.2kbits/s speed=0.0153x elapsed=0:04:01.28    \nframe=  446 fps=1.8 q=25.0 size=       1KiB time=00:00:03.70 bitrate=   1.2kbits/s speed=0.0153x elapsed=0:04:01.86    \nframe=  447 fps=1.8 q=22.0 size=       1KiB time=00:00:03.70 bitrate=   1.2kbits/s speed=0.0153x elapsed=0:04:02.42    \nframe=  448 fps=1.8 q=25.0 size=       1KiB time=00:00:03.72 bitrate=   1.2kbits/s speed=0.0153x elapsed=0:04:02.99    \nframe=  449 fps=1.8 q=14.0 size=       1KiB time=00:00:03.73 bitrate=   1.2kbits/s speed=0.0153x elapsed=0:04:03.57    \nframe=  450 fps=1.8 q=28.0 size=       1KiB time=00:00:03.74 bitrate=   1.2kbits/s speed=0.0153x elapsed=0:04:04.15    \nframe=  452 fps=1.8 q=28.0 size=       1KiB time=00:00:03.75 bitrate=   1.2kbits/s speed=0.0154x elapsed=0:04:04.74    \nframe=  453 fps=1.8 q=25.0 size=       1KiB time=00:00:03.76 bitrate=   1.2kbits/s speed=0.0154x elapsed=0:04:05.32    \nframe=  453 fps=1.8 q=25.0 size=       1KiB time=00:00:03.76 bitrate=   1.2kbits/s speed=0.0153x elapsed=0:04:05.90    \nframe=  454 fps=1.8 q=28.0 size=       1KiB time=00:00:03.77 bitrate=   1.2kbits/s speed=0.0153x elapsed=0:04:06.47    \nframe=  455 fps=1.8 q=27.0 size=       1KiB time=00:00:03.78 bitrate=   1.2kbits/s speed=0.0153x elapsed=0:04:07.02    \nframe=  457 fps=1.8 q=22.0 size=       1KiB time=00:00:03.80 bitrate=   1.2kbits/s speed=0.0153x elapsed=0:04:07.58    \nframe=  458 fps=1.8 q=28.0 size=       1KiB time=00:00:03.80 bitrate=   1.2kbits/s speed=0.0153x elapsed=0:04:08.14    \nframe=  460 fps=1.8 q=28.0 size=       1KiB time=00:00:03.82 bitrate=   1.2kbits/s speed=0.0154x elapsed=0:04:08.70    \nframe=  461 fps=1.8 q=25.0 size=       1KiB time=00:00:03.83 bitrate=   1.2kbits/s speed=0.0154x elapsed=0:04:09.29    \nframe=  461 fps=1.8 q=25.0 size=       1KiB time=00:00:03.83 bitrate=   1.2kbits/s speed=0.0153x elapsed=0:04:09.86    \nframe=  462 fps=1.8 q=28.0 size=       1KiB time=00:00:03.84 bitrate=   1.2kbits/s speed=0.0153x elapsed=0:04:10.42    \nframe=  462 fps=1.8 q=28.0 size=       1KiB time=00:00:03.84 bitrate=   1.2kbits/s speed=0.0153x elapsed=0:04:10.99    \nframe=  462 fps=1.8 q=28.0 size=       1KiB time=00:00:03.84 bitrate=   1.2kbits/s speed=0.0153x elapsed=0:04:11.57    \nframe=  464 fps=1.8 q=28.0 size=       1KiB time=00:00:03.85 bitrate=   1.2kbits/s speed=0.0153x elapsed=0:04:12.12    \nframe=  465 fps=1.8 q=16.0 size=       1KiB time=00:00:03.86 bitrate=   1.2kbits/s speed=0.0153x elapsed=0:04:12.70    \nframe=  466 fps=1.8 q=28.0 size=       1KiB time=00:00:03.87 bitrate=   1.2kbits/s speed=0.0153x elapsed=0:04:13.27    \nframe=  466 fps=1.8 q=28.0 size=       1KiB time=00:00:03.87 bitrate=   1.2kbits/s speed=0.0153x elapsed=0:04:13.85    \nframe=  468 fps=1.8 q=28.0 size=       1KiB time=00:00:03.88 bitrate=   1.2kbits/s speed=0.0153x elapsed=0:04:14.44    \nframe=  469 fps=1.8 q=25.0 size=       1KiB time=00:00:03.90 bitrate=   1.1kbits/s speed=0.0153x elapsed=0:04:15.03    \nframe=  469 fps=1.8 q=25.0 size=       1KiB time=00:00:03.90 bitrate=   1.1kbits/s speed=0.0153x elapsed=0:04:15.61    \nframe=  469 fps=1.8 q=25.0 size=       1KiB time=00:00:03.90 bitrate=   1.1kbits/s speed=0.0152x elapsed=0:04:16.18    \nframe=  470 fps=1.8 q=28.0 size=       1KiB time=00:00:03.90 bitrate=   1.1kbits/s speed=0.0152x elapsed=0:04:16.75    \nframe=  471 fps=1.8 q=27.0 size=       1KiB time=00:00:03.91 bitrate=   1.1kbits/s speed=0.0152x elapsed=0:04:17.33    \nframe=  473 fps=1.8 q=22.0 size=       1KiB time=00:00:03.92 bitrate=   1.1kbits/s speed=0.0152x elapsed=0:04:17.93    \nframe=  473 fps=1.8 q=22.0 size=       1KiB time=00:00:03.93 bitrate=   1.1kbits/s speed=0.0152x elapsed=0:04:18.52    \nframe=  475 fps=1.8 q=27.0 size=       1KiB time=00:00:03.95 bitrate=   1.1kbits/s speed=0.0152x elapsed=0:04:19.08    \nframe=  477 fps=1.8 q=25.0 size=       1KiB time=00:00:03.96 bitrate=   1.1kbits/s speed=0.0153x elapsed=0:04:19.63    \nframe=  477 fps=1.8 q=25.0 size=       1KiB time=00:00:03.96 bitrate=   1.1kbits/s speed=0.0152x elapsed=0:04:20.20    \nframe=  477 fps=1.8 q=25.0 size=       1KiB time=00:00:03.96 bitrate=   1.1kbits/s speed=0.0152x elapsed=0:04:20.77    \nframe=  478 fps=1.8 q=28.0 size=       1KiB time=00:00:03.97 bitrate=   1.1kbits/s speed=0.0152x elapsed=0:04:21.35    \nframe=  478 fps=1.8 q=28.0 size=       1KiB time=00:00:03.97 bitrate=   1.1kbits/s speed=0.0152x elapsed=0:04:21.92    \nframe=  479 fps=1.8 q=27.0 size=       1KiB time=00:00:03.98 bitrate=   1.1kbits/s speed=0.0152x elapsed=0:04:22.51    \nframe=  479 fps=1.8 q=27.0 size=       1KiB time=00:00:03.98 bitrate=   1.1kbits/s speed=0.0151x elapsed=0:04:23.11    \nframe=  481 fps=1.8 q=16.0 size=       1KiB time=00:00:04.00 bitrate=   1.1kbits/s speed=0.0152x elapsed=0:04:23.71    \nframe=  482 fps=1.8 q=28.0 size=       1KiB time=00:00:04.00 bitrate=   1.1kbits/s speed=0.0152x elapsed=0:04:24.31    \nframe=  483 fps=1.8 q=27.0 size=       1KiB time=00:00:04.01 bitrate=   1.1kbits/s speed=0.0152x elapsed=0:04:24.90    \nframe=  484 fps=1.8 q=28.0 size=       1KiB time=00:00:04.02 bitrate=   1.1kbits/s speed=0.0152x elapsed=0:04:25.50    \nframe=  485 fps=1.8 q=25.0 size=       1KiB time=00:00:04.03 bitrate=   1.1kbits/s speed=0.0152x elapsed=0:04:26.09    \nframe=  485 fps=1.8 q=25.0 size=       1KiB time=00:00:04.03 bitrate=   1.1kbits/s speed=0.0151x elapsed=0:04:26.68    \nframe=  486 fps=1.8 q=28.0 size=       1KiB time=00:00:04.04 bitrate=   1.1kbits/s speed=0.0151x elapsed=0:04:27.26    \nframe=  487 fps=1.8 q=27.0 size=       1KiB time=00:00:04.05 bitrate=   1.1kbits/s speed=0.0151x elapsed=0:04:27.82    \nframe=  488 fps=1.8 q=28.0 size=       1KiB time=00:00:04.05 bitrate=   1.1kbits/s speed=0.0151x elapsed=0:04:28.41    \nframe=  489 fps=1.8 q=21.0 size=       1KiB time=00:00:04.06 bitrate=   1.1kbits/s speed=0.0151x elapsed=0:04:29.00    \nframe=  491 fps=1.8 q=27.0 size=       1KiB time=00:00:04.07 bitrate=   1.1kbits/s speed=0.0151x elapsed=0:04:29.57    \nframe=  492 fps=1.8 q=28.0 size=       1KiB time=00:00:04.08 bitrate=   1.1kbits/s speed=0.0151x elapsed=0:04:30.16    \nframe=  492 fps=1.8 q=28.0 size=       1KiB time=00:00:04.09 bitrate=   1.1kbits/s speed=0.0151x elapsed=0:04:30.73    \nframe=  493 fps=1.8 q=25.0 size=       1KiB time=00:00:04.10 bitrate=   1.1kbits/s speed=0.0151x elapsed=0:04:31.31    \nframe=  493 fps=1.8 q=25.0 size=       1KiB time=00:00:04.10 bitrate=   1.1kbits/s speed=0.0151x elapsed=0:04:31.87    \nframe=  493 fps=1.8 q=25.0 size=       1KiB time=00:00:04.10 bitrate=   1.1kbits/s speed=0.0151x elapsed=0:04:32.42    \nframe=  494 fps=1.8 q=28.0 size=       1KiB time=00:00:04.10 bitrate=   1.1kbits/s speed=0.015x elapsed=0:04:32.99    \nframe=  494 fps=1.8 q=28.0 size=       1KiB time=00:00:04.10 bitrate=   1.1kbits/s speed=0.015x elapsed=0:04:33.58    \nframe=  495 fps=1.8 q=27.0 size=       1KiB time=00:00:04.11 bitrate=   1.1kbits/s speed=0.015x elapsed=0:04:34.15    \nframe=  496 fps=1.8 q=28.0 size=       1KiB time=00:00:04.12 bitrate=   1.1kbits/s speed=0.015x elapsed=0:04:34.73    \nframe=  498 fps=1.8 q=27.0 size=       1KiB time=00:00:04.14 bitrate=   1.1kbits/s speed=0.015x elapsed=0:04:35.31    \nframe=  498 fps=1.8 q=27.0 size=       1KiB time=00:00:04.14 bitrate=   1.1kbits/s speed=0.015x elapsed=0:04:35.88    \nframe=  499 fps=1.8 q=26.0 size=       1KiB time=00:00:04.15 bitrate=   1.1kbits/s speed=0.015x elapsed=0:04:36.45    \nframe=  501 fps=1.8 q=24.0 size=       1KiB time=00:00:04.16 bitrate=   1.1kbits/s speed=0.015x elapsed=0:04:37.02    \nframe=  501 fps=1.8 q=24.0 size=       1KiB time=00:00:04.16 bitrate=   1.1kbits/s speed=0.015x elapsed=0:04:37.58    \nframe=  502 fps=1.8 q=27.0 size=       1KiB time=00:00:04.17 bitrate=   1.1kbits/s speed=0.015x elapsed=0:04:38.15    \nframe=  502 fps=1.8 q=27.0 size=       1KiB time=00:00:04.17 bitrate=   1.1kbits/s speed=0.015x elapsed=0:04:38.71    \nframe=  507 fps=1.8 q=26.0 size=       1KiB time=00:00:04.20 bitrate=   1.1kbits/s speed=0.015x elapsed=0:04:39.29    \nframe=  509 fps=1.8 q=24.0 size=       1KiB time=00:00:04.23 bitrate=   1.1kbits/s speed=0.0151x elapsed=0:04:39.85    \nframe=  509 fps=1.8 q=24.0 size=       1KiB time=00:00:04.23 bitrate=   1.1kbits/s speed=0.0151x elapsed=0:04:40.42    \nframe=  511 fps=1.8 q=26.0 size=       1KiB time=00:00:04.25 bitrate=   1.1kbits/s speed=0.0151x elapsed=0:04:40.98    \nframe=  513 fps=1.8 q=12.0 size=       1KiB time=00:00:04.26 bitrate=   1.0kbits/s speed=0.0152x elapsed=0:04:41.57    \nframe=  513 fps=1.8 q=12.0 size=       1KiB time=00:00:04.26 bitrate=   1.0kbits/s speed=0.0151x elapsed=0:04:42.14    \nframe=  513 fps=1.8 q=12.0 size=       1KiB time=00:00:04.26 bitrate=   1.0kbits/s speed=0.0151x elapsed=0:04:42.74    \nframe=  513 fps=1.8 q=12.0 size=       1KiB time=00:00:04.26 bitrate=   1.0kbits/s speed=0.0151x elapsed=0:04:43.34    \nframe=  513 fps=1.8 q=12.0 size=       1KiB time=00:00:04.26 bitrate=   1.0kbits/s speed=0.015x elapsed=0:04:43.92    \nframe=  513 fps=1.8 q=12.0 size=       1KiB time=00:00:04.26 bitrate=   1.0kbits/s speed=0.015x elapsed=0:04:44.52    \nframe=  513 fps=1.8 q=12.0 size=       1KiB time=00:00:04.26 bitrate=   1.0kbits/s speed=0.015x elapsed=0:04:45.12    \nframe=  513 fps=1.8 q=12.0 size=       1KiB time=00:00:04.26 bitrate=   1.0kbits/s speed=0.0149x elapsed=0:04:45.69    \nframe=  513 fps=1.8 q=12.0 size=       1KiB time=00:00:04.26 bitrate=   1.0kbits/s speed=0.0149x elapsed=0:04:46.27    \nframe=  513 fps=1.8 q=12.0 size=       1KiB time=00:00:04.26 bitrate=   1.0kbits/s speed=0.0149x elapsed=0:04:46.84    \nframe=  513 fps=1.8 q=12.0 size=       1KiB time=00:00:04.26 bitrate=   1.0kbits/s speed=0.0148x elapsed=0:04:47.40    \nframe=  513 fps=1.8 q=12.0 size=       1KiB time=00:00:04.26 bitrate=   1.0kbits/s speed=0.0148x elapsed=0:04:47.96    \nframe=  513 fps=1.8 q=12.0 size=       1KiB time=00:00:04.26 bitrate=   1.0kbits/s speed=0.0148x elapsed=0:04:48.55    \nframe=  513 fps=1.8 q=12.0 size=       1KiB time=00:00:04.26 bitrate=   1.0kbits/s speed=0.0148x elapsed=0:04:49.14    \nframe=  517 fps=1.8 q=25.0 size=       1KiB time=00:00:04.30 bitrate=   1.0kbits/s speed=0.0148x elapsed=0:04:49.71    \nframe=  517 fps=1.8 q=25.0 size=       1KiB time=00:00:04.30 bitrate=   1.0kbits/s speed=0.0148x elapsed=0:04:50.29    \nframe=  517 fps=1.8 q=25.0 size=       1KiB time=00:00:04.30 bitrate=   1.0kbits/s speed=0.0148x elapsed=0:04:50.85    \nframe=  517 fps=1.8 q=25.0 size=       1KiB time=00:00:04.30 bitrate=   1.0kbits/s speed=0.0148x elapsed=0:04:51.44    \nframe=  521 fps=1.8 q=21.0 size=       1KiB time=00:00:04.33 bitrate=   1.0kbits/s speed=0.0148x elapsed=0:04:52.01    \nframe=  521 fps=1.8 q=21.0 size=       1KiB time=00:00:04.33 bitrate=   1.0kbits/s speed=0.0148x elapsed=0:04:52.58    \nframe=  521 fps=1.8 q=21.0 size=       1KiB time=00:00:04.33 bitrate=   1.0kbits/s speed=0.0148x elapsed=0:04:53.15    \nframe=  521 fps=1.8 q=21.0 size=       1KiB time=00:00:04.33 bitrate=   1.0kbits/s speed=0.0148x elapsed=0:04:53.73    \nframe=  521 fps=1.8 q=21.0 size=       1KiB time=00:00:04.33 bitrate=   1.0kbits/s speed=0.0147x elapsed=0:04:54.28    \nframe=  525 fps=1.8 q=25.0 size=       1KiB time=00:00:04.36 bitrate=   1.0kbits/s speed=0.0148x elapsed=0:04:54.84    \nframe=  525 fps=1.8 q=25.0 size=       1KiB time=00:00:04.36 bitrate=   1.0kbits/s speed=0.0148x elapsed=0:04:55.41    \nframe=  529 fps=1.8 q=14.0 size=       1KiB time=00:00:04.40 bitrate=   1.0kbits/s speed=0.0149x elapsed=0:04:55.99    \nframe=  529 fps=1.8 q=14.0 size=       1KiB time=00:00:04.40 bitrate=   1.0kbits/s speed=0.0148x elapsed=0:04:56.58    \nframe=  529 fps=1.8 q=14.0 size=       1KiB time=00:00:04.40 bitrate=   1.0kbits/s speed=0.0148x elapsed=0:04:57.15    \nframe=  529 fps=1.8 q=14.0 size=       1KiB time=00:00:04.40 bitrate=   1.0kbits/s speed=0.0148x elapsed=0:04:57.71    \nframe=  529 fps=1.8 q=14.0 size=       1KiB time=00:00:04.40 bitrate=   1.0kbits/s speed=0.0148x elapsed=0:04:58.30    \nframe=  529 fps=1.8 q=14.0 size=       1KiB time=00:00:04.40 bitrate=   1.0kbits/s speed=0.0147x elapsed=0:04:58.88    \nframe=  529 fps=1.8 q=14.0 size=       1KiB time=00:00:04.40 bitrate=   1.0kbits/s speed=0.0147x elapsed=0:04:59.44    \nframe=  531 fps=1.8 q=27.0 size=       1KiB time=00:00:04.40 bitrate=   1.0kbits/s speed=0.0147x elapsed=0:05:00.01    \nframe=  533 fps=1.8 q=25.0 size=       1KiB time=00:00:04.43 bitrate=   1.0kbits/s speed=0.0147x elapsed=0:05:00.59    \nframe=  533 fps=1.8 q=25.0 size=       1KiB time=00:00:04.43 bitrate=   1.0kbits/s speed=0.0147x elapsed=0:05:01.19    \nframe=  533 fps=1.8 q=25.0 size=       1KiB time=00:00:04.43 bitrate=   1.0kbits/s speed=0.0147x elapsed=0:05:01.76    \nframe=  535 fps=1.8 q=27.0 size=       1KiB time=00:00:04.45 bitrate=   1.0kbits/s speed=0.0147x elapsed=0:05:02.35    \nframe=  537 fps=1.8 q=21.0 size=       1KiB time=00:00:04.46 bitrate=   1.0kbits/s speed=0.0147x elapsed=0:05:02.94    \nframe=  537 fps=1.8 q=21.0 size=       1KiB time=00:00:04.46 bitrate=   1.0kbits/s speed=0.0147x elapsed=0:05:03.53    \nframe=  537 fps=1.8 q=21.0 size=       1KiB time=00:00:04.46 bitrate=   1.0kbits/s speed=0.0147x elapsed=0:05:04.13    \nframe=  537 fps=1.8 q=21.0 size=       1KiB time=00:00:04.46 bitrate=   1.0kbits/s speed=0.0147x elapsed=0:05:04.71    \nframe=  539 fps=1.8 q=27.0 size=       1KiB time=00:00:04.48 bitrate=   1.0kbits/s speed=0.0147x elapsed=0:05:05.26    \nframe=  541 fps=1.8 q=25.0 size=       1KiB time=00:00:04.50 bitrate=   1.0kbits/s speed=0.0147x elapsed=0:05:05.83    \nframe=  541 fps=1.8 q=25.0 size=       1KiB time=00:00:04.50 bitrate=   1.0kbits/s speed=0.0147x elapsed=0:05:06.41    \nframe=  543 fps=1.8 q=27.0 size=       1KiB time=00:00:04.51 bitrate=   1.0kbits/s speed=0.0147x elapsed=0:05:06.97    \nframe=  545 fps=1.8 q=14.0 size=       1KiB time=00:00:04.53 bitrate=   1.0kbits/s speed=0.0147x elapsed=0:05:07.56    \nframe=  545 fps=1.8 q=14.0 size=       1KiB time=00:00:04.53 bitrate=   1.0kbits/s speed=0.0147x elapsed=0:05:08.15    \nframe=  545 fps=1.8 q=14.0 size=       1KiB time=00:00:04.53 bitrate=   1.0kbits/s speed=0.0147x elapsed=0:05:08.73    \nframe=  545 fps=1.8 q=14.0 size=       1KiB time=00:00:04.53 bitrate=   1.0kbits/s speed=0.0147x elapsed=0:05:09.32    \nframe=  545 fps=1.8 q=14.0 size=       1KiB time=00:00:04.53 bitrate=   1.0kbits/s speed=0.0146x elapsed=0:05:09.90    \nframe=  545 fps=1.8 q=14.0 size=       1KiB time=00:00:04.53 bitrate=   1.0kbits/s speed=0.0146x elapsed=0:05:10.46    \nframe=  545 fps=1.8 q=14.0 size=       1KiB time=00:00:04.53 bitrate=   1.0kbits/s speed=0.0146x elapsed=0:05:11.04    \nframe=  547 fps=1.8 q=26.0 size=       1KiB time=00:00:04.55 bitrate=   1.0kbits/s speed=0.0146x elapsed=0:05:11.60    \nframe=  549 fps=1.8 q=25.0 size=       1KiB time=00:00:04.56 bitrate=   1.0kbits/s speed=0.0146x elapsed=0:05:12.17    \nframe=  549 fps=1.8 q=25.0 size=       1KiB time=00:00:04.56 bitrate=   1.0kbits/s speed=0.0146x elapsed=0:05:12.72    \nframe=  553 fps=1.8 q=22.0 size=       1KiB time=00:00:04.60 bitrate=   1.0kbits/s speed=0.0147x elapsed=0:05:13.28    \nframe=  553 fps=1.8 q=22.0 size=       1KiB time=00:00:04.60 bitrate=   1.0kbits/s speed=0.0147x elapsed=0:05:13.85    \nframe=  553 fps=1.8 q=22.0 size=       1KiB time=00:00:04.60 bitrate=   1.0kbits/s speed=0.0146x elapsed=0:05:14.42    \nframe=  553 fps=1.8 q=22.0 size=       1KiB time=00:00:04.60 bitrate=   1.0kbits/s speed=0.0146x elapsed=0:05:14.99    \nframe=  553 fps=1.8 q=22.0 size=       1KiB time=00:00:04.60 bitrate=   1.0kbits/s speed=0.0146x elapsed=0:05:15.57    \nframe=  553 fps=1.7 q=22.0 size=       1KiB time=00:00:04.60 bitrate=   1.0kbits/s speed=0.0146x elapsed=0:05:16.14    \nframe=  557 fps=1.8 q=25.0 size=       1KiB time=00:00:04.63 bitrate=   1.0kbits/s speed=0.0146x elapsed=0:05:16.70    \nframe=  557 fps=1.8 q=25.0 size=       1KiB time=00:00:04.63 bitrate=   1.0kbits/s speed=0.0146x elapsed=0:05:17.27    \nframe=  557 fps=1.8 q=25.0 size=       1KiB time=00:00:04.63 bitrate=   1.0kbits/s speed=0.0146x elapsed=0:05:17.84    \nframe=  561 fps=1.8 q=15.0 size=       1KiB time=00:00:04.66 bitrate=   1.0kbits/s speed=0.0147x elapsed=0:05:18.39    \nframe=  561 fps=1.8 q=15.0 size=       1KiB time=00:00:04.66 bitrate=   1.0kbits/s speed=0.0146x elapsed=0:05:18.96    \nframe=  561 fps=1.8 q=15.0 size=       1KiB time=00:00:04.66 bitrate=   1.0kbits/s speed=0.0146x elapsed=0:05:19.52    \nframe=  561 fps=1.8 q=15.0 size=       1KiB time=00:00:04.66 bitrate=   1.0kbits/s speed=0.0146x elapsed=0:05:20.12    \nframe=  561 fps=1.7 q=15.0 size=       1KiB time=00:00:04.66 bitrate=   1.0kbits/s speed=0.0145x elapsed=0:05:20.73    \nframe=  561 fps=1.7 q=15.0 size=       1KiB time=00:00:04.66 bitrate=   1.0kbits/s speed=0.0145x elapsed=0:05:21.30    \nframe=  561 fps=1.7 q=15.0 size=       1KiB time=00:00:04.66 bitrate=   1.0kbits/s speed=0.0145x elapsed=0:05:21.87    \nframe=  563 fps=1.7 q=26.0 size=       1KiB time=00:00:04.68 bitrate=   1.0kbits/s speed=0.0145x elapsed=0:05:22.44    \nframe=  565 fps=1.7 q=24.0 size=       1KiB time=00:00:04.70 bitrate=   1.0kbits/s speed=0.0145x elapsed=0:05:23.04    \nframe=  565 fps=1.7 q=24.0 size=       1KiB time=00:00:04.70 bitrate=   1.0kbits/s speed=0.0145x elapsed=0:05:23.61    \nframe=  567 fps=1.7 q=26.0 size=       1KiB time=00:00:04.70 bitrate=   1.0kbits/s speed=0.0145x elapsed=0:05:24.20    \nframe=  569 fps=1.8 q=20.0 size=       1KiB time=00:00:04.73 bitrate=   0.9kbits/s speed=0.0146x elapsed=0:05:24.78    \nframe=  569 fps=1.7 q=20.0 size=       1KiB time=00:00:04.73 bitrate=   0.9kbits/s speed=0.0145x elapsed=0:05:25.37    \nframe=  569 fps=1.7 q=20.0 size=       1KiB time=00:00:04.73 bitrate=   0.9kbits/s speed=0.0145x elapsed=0:05:25.95    \nframe=  569 fps=1.7 q=20.0 size=       1KiB time=00:00:04.73 bitrate=   0.9kbits/s speed=0.0145x elapsed=0:05:26.53    \nframe=  569 fps=1.7 q=20.0 size=       1KiB time=00:00:04.73 bitrate=   0.9kbits/s speed=0.0145x elapsed=0:05:27.09    \nframe=  569 fps=1.7 q=20.0 size=       1KiB time=00:00:04.73 bitrate=   0.9kbits/s speed=0.0144x elapsed=0:05:27.65    \nframe=  571 fps=1.7 q=26.0 size=       1KiB time=00:00:04.75 bitrate=   0.9kbits/s speed=0.0145x elapsed=0:05:28.24    \nframe=  573 fps=1.7 q=24.0 size=       1KiB time=00:00:04.76 bitrate=   0.9kbits/s speed=0.0145x elapsed=0:05:28.81    \nframe=  573 fps=1.7 q=24.0 size=       1KiB time=00:00:04.76 bitrate=   0.9kbits/s speed=0.0145x elapsed=0:05:29.37    \nframe=  575 fps=1.7 q=29.0 size=       1KiB time=00:00:04.78 bitrate=   0.9kbits/s speed=0.0145x elapsed=0:05:29.95    \nframe=  577 fps=1.7 q=13.0 size=       1KiB time=00:00:04.80 bitrate=   0.9kbits/s speed=0.0145x elapsed=0:05:30.52    \nframe=  577 fps=1.7 q=13.0 size=       1KiB time=00:00:04.80 bitrate=   0.9kbits/s speed=0.0145x elapsed=0:05:31.07    \nframe=  577 fps=1.7 q=13.0 size=       1KiB time=00:00:04.80 bitrate=   0.9kbits/s speed=0.0145x elapsed=0:05:31.62    \nframe=  579 fps=1.7 q=23.0 size=       1KiB time=00:00:04.81 bitrate=   0.9kbits/s speed=0.0145x elapsed=0:05:32.17    \nframe=  581 fps=1.7 q=22.0 size=       1KiB time=00:00:04.83 bitrate=   0.9kbits/s speed=0.0145x elapsed=0:05:32.75    \nframe=  581 fps=1.7 q=22.0 size=       1KiB time=00:00:04.83 bitrate=   0.9kbits/s speed=0.0145x elapsed=0:05:33.34    \nframe=  581 fps=1.7 q=22.0 size=       1KiB time=00:00:04.83 bitrate=   0.9kbits/s speed=0.0145x elapsed=0:05:33.97    \nframe=  583 fps=1.7 q=23.0 size=       1KiB time=00:00:04.85 bitrate=   0.9kbits/s speed=0.0145x elapsed=0:05:34.54    \nframe=  583 fps=1.7 q=23.0 size=       1KiB time=00:00:04.85 bitrate=   0.9kbits/s speed=0.0145x elapsed=0:05:35.13    \nframe=  585 fps=1.7 q=20.0 size=       1KiB time=00:00:04.86 bitrate=   0.9kbits/s speed=0.0145x elapsed=0:05:35.70    \nframe=  585 fps=1.7 q=20.0 size=       1KiB time=00:00:04.86 bitrate=   0.9kbits/s speed=0.0145x elapsed=0:05:36.27    \nframe=  585 fps=1.7 q=20.0 size=       1KiB time=00:00:04.86 bitrate=   0.9kbits/s speed=0.0144x elapsed=0:05:36.85    \nframe=  585 fps=1.7 q=20.0 size=       1KiB time=00:00:04.86 bitrate=   0.9kbits/s speed=0.0144x elapsed=0:05:37.41    \nframe=  589 fps=1.7 q=28.0 size=       1KiB time=00:00:04.88 bitrate=   0.9kbits/s speed=0.0144x elapsed=0:05:37.97    \nframe=  589 fps=1.7 q=28.0 size=       1KiB time=00:00:04.90 bitrate=   0.9kbits/s speed=0.0145x elapsed=0:05:38.53    \nframe=  589 fps=1.7 q=28.0 size=       1KiB time=00:00:04.90 bitrate=   0.9kbits/s speed=0.0145x elapsed=0:05:39.09    \nframe=  591 fps=1.7 q=26.0 size=       1KiB time=00:00:04.91 bitrate=   0.9kbits/s speed=0.0145x elapsed=0:05:39.69    \n[out#0/matroska @ 000001e0c23290c0] video:487KiB audio:0KiB subtitle:0KiB other streams:0KiB global headers:0KiB muxing overhead: 0.658250%\nframe=  600 fps=1.8 q=36.0 Lsize=     490KiB time=00:00:04.99 bitrate= 803.9kbits/s speed=0.0147x elapsed=0:05:39.76    \n",
  "seconds": 342.9393582344055,
  "probe_out": {}
}